<svg width="50" height="50" viewBox="0 0 50 50" fill="none" xmlns="http://www.w3.org/2000/svg">
<path d="M40.6396 1C44.7428 1 48.0801 4.33725 48.0801 8.44043V40.6406C48.08 44.7438 44.7426 48.0801 40.6396 48.0801H8.43945C4.33651 48.0799 1.00013 44.7436 1 40.6406V8.44043C1 4.33746 4.33635 1.00015 8.43945 1H40.6396Z" stroke="white" stroke-width="2"/>
<path d="M25.5532 33.7086C25.4587 33.767 25.3632 33.8145 25.2672 33.8511C25.1711 33.887 25.0385 33.921 24.8704 33.952L24.5348 34.0142C24.2198 34.0694 23.9938 34.1364 23.8563 34.2156C23.6238 34.3505 23.5081 34.5595 23.5081 34.8422C23.5081 35.0944 23.5785 35.2761 23.7209 35.3885C23.8623 35.5009 24.0353 35.5567 24.2388 35.5567C24.5609 35.5567 24.8578 35.4638 25.1296 35.2772C25.4015 35.0906 25.5423 34.7511 25.5532 34.2571V33.7086ZM24.651 33.0198C24.9254 32.9854 25.1215 32.9424 25.2404 32.8904C25.4522 32.8004 25.5581 32.6607 25.5581 32.4708C25.5581 32.2399 25.4768 32.08 25.3141 31.9921C25.1515 31.9042 24.913 31.8601 24.5981 31.8601C24.2443 31.8601 23.9943 31.9463 23.8476 32.1187C23.7423 32.2464 23.6724 32.4194 23.6375 32.6367H22.2134C22.2446 32.1433 22.3838 31.7377 22.6294 31.4201C23.0213 30.9228 23.6937 30.6746 24.6471 30.6746C25.2677 30.6746 25.8189 30.7968 26.3008 31.0419C26.7827 31.287 27.0235 31.7497 27.0235 32.4299V35.0185C27.0235 35.198 27.0267 35.4153 27.0338 35.6707C27.0443 35.8639 27.0736 35.9954 27.1217 36.0642C27.1703 36.133 27.2423 36.1903 27.3395 36.235V36.4529H25.7343C25.6896 36.3387 25.6585 36.2318 25.6411 36.1314C25.6236 36.0315 25.6099 35.9175 25.5996 35.7896C25.3949 36.0108 25.1585 36.199 24.8911 36.3541C24.5718 36.5374 24.2105 36.6285 23.8082 36.6285C23.2947 36.6285 22.87 36.4828 22.5349 36.1909C22.1999 35.8994 22.0322 35.4863 22.0322 34.9509C22.0322 34.2571 22.3019 33.755 22.8407 33.4444C23.1364 33.2752 23.5708 33.1546 24.1451 33.0821L24.651 33.0198Z" fill="white"/>
<path d="M31.9266 32.4759C31.7257 32.1407 31.4004 31.9738 30.9508 31.9738C30.4103 31.9738 30.0387 32.2275 29.8368 32.7346C29.732 33.0037 29.6796 33.3458 29.6796 33.7601C29.6796 34.4155 29.8559 34.8762 30.2073 35.1421C30.4169 35.2976 30.6642 35.3751 30.9508 35.3751C31.3655 35.3751 31.6821 35.2163 31.9003 34.8991C32.1181 34.5815 32.2273 34.1586 32.2273 33.6302C32.2273 33.1958 32.1268 32.811 31.9266 32.4759ZM33.059 31.4143C33.5191 31.9011 33.7495 32.6157 33.7495 33.5582C33.7495 34.552 33.5246 35.3096 33.0744 35.8308C32.6246 36.3521 32.0451 36.6129 31.3365 36.6129C30.8847 36.6129 30.5102 36.5005 30.2112 36.2762C30.048 36.1517 29.8875 35.9705 29.7314 35.7325V38.6733H28.2715V30.8085H29.685V31.6425C29.8445 31.3974 30.0152 31.2042 30.1959 31.0622C30.5256 30.8102 30.9179 30.6846 31.3732 30.6846C32.0368 30.6846 32.5985 30.9275 33.059 31.4143Z" fill="white"/>
<path d="M38.4031 32.4759C38.2023 32.1407 37.877 31.9738 37.4278 31.9738C36.887 31.9738 36.5159 32.2275 36.3133 32.7346C36.209 33.0037 36.1566 33.3458 36.1566 33.7601C36.1566 34.4155 36.3324 34.8762 36.6845 35.1421C36.8935 35.2976 37.1413 35.3751 37.4273 35.3751C37.8421 35.3751 38.1591 35.2163 38.3769 34.8991C38.5946 34.5815 38.7039 34.1586 38.7039 33.6302C38.7039 33.1958 38.604 32.811 38.4031 32.4759ZM39.5357 31.4143C39.9963 31.9011 40.226 32.6157 40.226 33.5582C40.226 34.552 40.0012 35.3096 39.5509 35.8308C39.1011 36.3521 38.5221 36.6129 37.8132 36.6129C37.3617 36.6129 36.9869 36.5005 36.6877 36.2762C36.5245 36.1517 36.3647 35.9705 36.2085 35.7325V38.6733H34.7485V30.8085H36.1615V31.6425C36.3215 31.3974 36.4918 31.2042 36.6725 31.0622C37.0021 30.8102 37.3951 30.6846 37.8502 30.6846C38.5133 30.6846 39.0756 30.9275 39.5357 31.4143Z" fill="white"/>
<path d="M22.2661 15.4353H25.7619V28.6235H22.2661V15.4353ZM25.7619 13.8623H22.2661V10.6804H25.7619V13.8623Z" fill="white"/>
<path d="M36.2544 14.4816C35.7977 13.7176 35.0553 13.3355 34.0294 13.3355C32.7969 13.3355 31.9482 13.9146 31.4876 15.0722C31.2496 15.6868 31.1296 16.4668 31.1296 17.4114C31.1296 18.908 31.5313 19.9592 32.3341 20.566C32.8106 20.9204 33.376 21.0977 34.0294 21.0977C34.9768 21.0977 35.6972 20.7352 36.1956 20.0105C36.6938 19.2862 36.9416 18.3213 36.9416 17.1162C36.9416 16.1239 36.7135 15.2457 36.2544 14.4816ZM38.8398 12.06C39.8894 13.1702 40.415 14.8005 40.415 16.9508C40.415 19.2191 39.9014 20.9482 38.8753 22.1373C37.8498 23.3267 36.5263 23.921 34.9096 23.921C33.8803 23.921 33.0234 23.6651 32.3422 23.1531C31.9685 22.8699 31.6038 22.4562 31.2475 21.9125V28.6229H27.916V10.6776H31.1411V12.5796C31.5056 12.0202 31.8932 11.5792 32.3069 11.2566C33.0589 10.6813 33.955 10.3938 34.9926 10.3938C36.5066 10.3938 37.7887 10.9493 38.8398 12.06Z" fill="white"/>
<path d="M8.66455 20.825V16.7622H11.7061V10.6794H17.3496V16.7622H20.8911V20.825H17.3496V32.3509C17.3496 33.2444 17.4625 33.8016 17.6895 34.0215C17.9166 34.2414 18.6097 34.3517 19.7707 34.3517C19.9437 34.3517 20.1277 34.3484 20.3213 34.3419C20.514 34.3348 20.7044 34.325 20.8911 34.3113V38.5739L18.19 38.6738C15.4949 38.7677 13.6541 38.301 12.6667 37.2734C12.0265 36.6195 11.7061 35.6125 11.7061 34.2513V20.825H8.66455Z" fill="white"/>
<path d="M9.01482 40.8228H9.44824V41.5345H9.85483V41.8844H9.44824V43.5479C9.44824 43.6369 9.47828 43.6963 9.53836 43.7263C9.57161 43.7438 9.62722 43.7526 9.70477 43.7526C9.72545 43.7526 9.74794 43.752 9.77183 43.7514C9.79531 43.7509 9.82325 43.7487 9.85483 43.7454V44.0833C9.80579 44.098 9.75437 44.1079 9.70141 44.1144C9.64804 44.1204 9.59075 44.1237 9.529 44.1237C9.32878 44.1237 9.19339 44.0729 9.12185 43.9702C9.05031 43.8683 9.01482 43.7351 9.01482 43.5719V41.8844H8.66943V41.5345H9.01482V40.8228Z" fill="white"/>
<path d="M10.2832 40.5747H10.7116V41.8791C10.8132 41.7505 10.9043 41.6603 10.9856 41.6079C11.1231 41.5174 11.2956 41.472 11.5018 41.472C11.8714 41.472 12.1219 41.6014 12.254 41.8601C12.3255 42.0014 12.361 42.1974 12.361 42.4479V44.0831H11.9205V42.4769C11.9205 42.2896 11.8964 42.1522 11.8491 42.0648C11.7715 41.9255 11.6252 41.8552 11.4113 41.8552C11.2333 41.8552 11.0723 41.9163 10.9283 42.0386C10.7837 42.1608 10.7116 42.3916 10.7116 42.7312V44.0831H10.2832V40.5747Z" fill="white"/>
<path d="M14.7384 42.6052C14.721 42.4196 14.6806 42.2711 14.6173 42.1603C14.4999 41.9541 14.304 41.8508 14.0295 41.8508C13.8325 41.8508 13.6676 41.9218 13.5345 42.0637C13.4013 42.2056 13.3303 42.3862 13.3226 42.6052H14.7384ZM14.5812 41.6048C14.7516 41.6893 14.8809 41.799 14.9694 41.9344C15.055 42.0626 15.1123 42.2127 15.1407 42.3841C15.1664 42.5015 15.179 42.6886 15.179 42.9457H13.3108C13.3183 43.2044 13.3795 43.4118 13.4941 43.5678C13.6081 43.724 13.785 43.8026 14.0246 43.8026C14.2483 43.8026 14.4268 43.7284 14.56 43.581C14.6364 43.4953 14.6905 43.3965 14.7221 43.2835H15.1435C15.132 43.3774 15.0954 43.4816 15.0327 43.5963C14.9699 43.7115 14.8995 43.8054 14.822 43.8784C14.692 44.0056 14.5311 44.0912 14.339 44.1355C14.2358 44.1611 14.119 44.1737 13.9891 44.1737C13.6715 44.1737 13.4024 44.0585 13.1819 43.8272C12.9615 43.5963 12.8511 43.2732 12.8511 42.8572C12.8511 42.448 12.9624 42.1156 13.1846 41.8602C13.4067 41.6048 13.6971 41.4771 14.0557 41.4771C14.2364 41.4771 14.4115 41.5195 14.5812 41.6048Z" fill="white"/>
<path d="M17.1448 40.8228H17.5782V41.5345H17.9848V41.8844H17.5782V43.5479C17.5782 43.6369 17.6081 43.6963 17.6682 43.7263C17.702 43.7438 17.7572 43.7526 17.8351 43.7526C17.856 43.7526 17.8778 43.752 17.9018 43.7514C17.9258 43.7509 17.9531 43.7487 17.9848 43.7454V44.0833C17.9356 44.098 17.8849 44.1079 17.8314 44.1144C17.7784 44.1204 17.7206 44.1237 17.6589 44.1237C17.4591 44.1237 17.3232 44.0729 17.2522 43.9702C17.1803 43.8683 17.1448 43.7351 17.1448 43.5719V41.8844H16.7998V41.5345H17.1448V40.8228Z" fill="white"/>
<path d="M18.4131 41.5463H18.8486V44.083H18.4131V41.5463ZM18.4131 40.5867H18.8486V41.0725H18.4131V40.5867Z" fill="white"/>
<path d="M21.0707 43.5445C21.2033 43.377 21.2693 43.1265 21.2693 42.7935C21.2693 42.5905 21.2404 42.4158 21.1815 42.2696C21.0702 41.9891 20.8672 41.8489 20.5723 41.8489C20.2754 41.8489 20.0724 41.9967 19.9627 42.2936C19.9043 42.4525 19.8749 42.6538 19.8749 42.8983C19.8749 43.0949 19.9043 43.2624 19.9627 43.4005C20.0741 43.6636 20.2771 43.7956 20.5723 43.7956C20.7721 43.7956 20.9386 43.7116 21.0707 43.5445ZM19.4634 41.5465H19.8797V41.8843C19.9654 41.7685 20.0587 41.6785 20.1603 41.6152C20.3049 41.5197 20.4747 41.4722 20.67 41.4722C20.9583 41.4722 21.2039 41.583 21.4052 41.8046C21.6067 42.0256 21.7076 42.3422 21.7076 42.7531C21.7076 43.3082 21.5624 43.705 21.2721 43.943C21.0876 44.0936 20.8736 44.1689 20.6291 44.1689C20.437 44.1689 20.276 44.1269 20.1461 44.0429C20.0698 43.9954 19.9851 43.9135 19.8912 43.7978V45.0995H19.4634V41.5465Z" fill="white"/>
<path d="M23.7817 43.5445C23.9143 43.377 23.9803 43.1265 23.9803 42.7935C23.9803 42.5905 23.9514 42.4158 23.8925 42.2696C23.7811 41.9891 23.5787 41.8489 23.2834 41.8489C22.9865 41.8489 22.7834 41.9967 22.6737 42.2936C22.6153 42.4525 22.5858 42.6538 22.5858 42.8983C22.5858 43.0949 22.6153 43.2624 22.6737 43.4005C22.785 43.6636 22.9881 43.7956 23.2834 43.7956C23.4831 43.7956 23.6496 43.7116 23.7817 43.5445ZM22.1743 41.5465H22.5907V41.8843C22.6765 41.7685 22.7698 41.6785 22.8712 41.6152C23.0159 41.5197 23.1856 41.4722 23.3811 41.4722C23.6697 41.4722 23.9148 41.583 24.1162 41.8046C24.3176 42.0256 24.4187 42.3422 24.4187 42.7531C24.4187 43.3082 24.2733 43.705 23.983 43.943C23.7991 44.0936 23.5847 44.1689 23.3401 44.1689C23.1486 44.1689 22.9875 44.1269 22.8571 44.0429C22.7807 43.9954 22.696 43.9135 22.6023 43.7978V45.0995H22.1743V41.5465Z" fill="white"/>
<path d="M24.9185 41.5463H25.354V44.083H24.9185V41.5463ZM24.9185 40.5867H25.354V41.0725H24.9185V40.5867Z" fill="white"/>
<path d="M26.0015 41.5343H26.4081V41.8962C26.5292 41.7466 26.6563 41.6397 26.7917 41.5747C26.9266 41.5097 27.0761 41.4771 27.2415 41.4771C27.6028 41.4771 27.8473 41.6031 27.9745 41.8553C28.0443 41.9933 28.0793 42.1909 28.0793 42.448V44.0831H27.6437V42.4769C27.6437 42.3212 27.6203 42.1958 27.5743 42.1008C27.498 41.942 27.3604 41.8628 27.1602 41.8628C27.0586 41.8628 26.9756 41.8732 26.9106 41.8934C26.7928 41.9284 26.6896 41.9982 26.6013 42.103C26.5297 42.1871 26.4834 42.2739 26.4616 42.3639C26.4402 42.4534 26.4299 42.5811 26.4299 42.7481V44.0831H26.0015V41.5343Z" fill="white"/>
<path d="M30.1875 42.0962C30.0575 41.9439 29.8916 41.8675 29.6902 41.8675C29.3884 41.8675 29.1821 42.0089 29.0713 42.2917C29.0123 42.4423 28.9834 42.6399 28.9834 42.8838C28.9834 43.1715 29.0412 43.3897 29.158 43.5398C29.2748 43.6894 29.4315 43.7647 29.6286 43.7647C29.9364 43.7647 30.1526 43.626 30.278 43.3482C30.3479 43.1911 30.3828 43.0077 30.3828 42.7987C30.3828 42.4827 30.3178 42.2485 30.1875 42.0962ZM30.1351 41.6372C30.2164 41.6924 30.2987 41.7732 30.3828 41.8795V41.5581H30.7779V43.8765C30.7779 44.2003 30.7304 44.4557 30.635 44.6429C30.4576 44.9888 30.122 45.1614 29.6286 45.1614C29.3535 45.1614 29.1231 45.1002 28.936 44.9774C28.7488 44.8542 28.644 44.6619 28.6216 44.4001H29.0571C29.0778 44.5141 29.1188 44.6025 29.1809 44.6641C29.2776 44.7591 29.4299 44.8072 29.6378 44.8072C29.9664 44.8072 30.1815 44.6914 30.2829 44.4594C30.343 44.3231 30.3708 44.0797 30.3659 43.7293C30.2803 43.8591 30.177 43.9557 30.0564 44.019C29.9364 44.0829 29.7764 44.1146 29.5783 44.1146C29.3022 44.1146 29.0604 44.0168 28.8536 43.8204C28.6466 43.6245 28.543 43.3007 28.543 42.8483C28.543 42.4215 28.6472 42.0881 28.8562 41.8485C29.0647 41.6089 29.3163 41.4893 29.6116 41.4893C29.8114 41.4893 29.986 41.5384 30.1351 41.6372Z" fill="white"/>
<path d="M33.2411 43.6979C33.3318 43.7695 33.4387 43.8049 33.5626 43.8049C33.7132 43.8049 33.8595 43.77 34.0009 43.7002C34.2389 43.5845 34.3578 43.395 34.3578 43.1314V42.7865C34.3054 42.8198 34.2377 42.8476 34.1553 42.8694C34.0723 42.8919 33.9916 42.9077 33.9125 42.9169L33.6532 42.9501C33.4976 42.971 33.3808 43.0036 33.3033 43.0479C33.1713 43.1227 33.1057 43.2416 33.1057 43.4048C33.1057 43.5287 33.1511 43.6264 33.2411 43.6979ZM34.1433 42.5387C34.2415 42.5261 34.3076 42.4846 34.3409 42.4147C34.36 42.3766 34.3698 42.3219 34.3698 42.2506C34.3698 42.1048 34.3174 41.9989 34.2132 41.9328C34.1095 41.8673 33.961 41.834 33.7673 41.834C33.5435 41.834 33.3846 41.8947 33.2913 42.0147C33.2389 42.0819 33.2045 42.1813 33.1887 42.3127H32.7893C32.7968 41.9984 32.8989 41.7801 33.0948 41.6573C33.2909 41.5339 33.5183 41.4722 33.7771 41.4722C34.0768 41.4722 34.3202 41.5296 34.5074 41.6436C34.693 41.7582 34.7857 41.9362 34.7857 42.1768V43.6455C34.7857 43.6897 34.795 43.7257 34.8135 43.7526C34.8316 43.7798 34.8703 43.7929 34.9287 43.7929C34.9478 43.7929 34.969 43.7918 34.9931 43.789C35.0171 43.7869 35.0423 43.7836 35.0689 43.7787V44.0953C35.0024 44.1144 34.9521 44.1263 34.9167 44.1313C34.8817 44.1357 34.8342 44.1378 34.7743 44.1378C34.6263 44.1378 34.5194 44.0859 34.4528 43.9811C34.4178 43.9255 34.3933 43.8469 34.3791 43.7454C34.2918 43.8594 34.1662 43.9588 34.003 44.0429C33.8393 44.1269 33.6592 44.1689 33.4627 44.1689C33.2264 44.1689 33.0332 44.0974 32.8832 43.9533C32.733 43.8104 32.6582 43.6303 32.6582 43.4147C32.6582 43.1783 32.732 42.995 32.8792 42.865C33.0272 42.7347 33.221 42.6543 33.4599 42.6243L34.1433 42.5387Z" fill="white"/>
<path d="M37.0624 43.5445C37.195 43.377 37.2611 43.1265 37.2611 42.7935C37.2611 42.5905 37.2322 42.4158 37.1732 42.2696C37.0624 41.9891 36.8589 41.8489 36.564 41.8489C36.2671 41.8489 36.0641 41.9967 35.955 42.2936C35.896 42.4525 35.8666 42.6538 35.8666 42.8983C35.8666 43.0949 35.896 43.2624 35.955 43.4005C36.0658 43.6636 36.2688 43.7956 36.564 43.7956C36.7638 43.7956 36.9303 43.7116 37.0624 43.5445ZM35.4551 41.5465H35.8714V41.8843C35.9572 41.7685 36.0506 41.6785 36.1526 41.6152C36.2966 41.5197 36.4664 41.4722 36.6618 41.4722C36.9505 41.4722 37.1956 41.583 37.3969 41.8046C37.5984 42.0256 37.6993 42.3422 37.6993 42.7531C37.6993 43.3082 37.5541 43.705 37.2638 43.943C37.0799 44.0936 36.8654 44.1689 36.6213 44.1689C36.4292 44.1689 36.2677 44.1269 36.1379 44.0429C36.062 43.9954 35.9768 43.9135 35.8835 43.7978V45.0995H35.4551V41.5465Z" fill="white"/>
<path d="M39.7734 43.5445C39.906 43.377 39.972 43.1265 39.972 42.7935C39.972 42.5905 39.9431 42.4158 39.8842 42.2696C39.7734 41.9891 39.5698 41.8489 39.2751 41.8489C38.9782 41.8489 38.7752 41.9967 38.6659 42.2936C38.607 42.4525 38.5775 42.6538 38.5775 42.8983C38.5775 43.0949 38.607 43.2624 38.6659 43.4005C38.7767 43.6636 38.9797 43.7956 39.2751 43.7956C39.4748 43.7956 39.6413 43.7116 39.7734 43.5445ZM38.166 41.5465H38.5825V41.8843C38.6682 41.7685 38.7615 41.6785 38.8635 41.6152C39.0077 41.5197 39.1773 41.4722 39.3728 41.4722C39.6614 41.4722 39.9065 41.583 40.108 41.8046C40.3093 42.0256 40.4104 42.3422 40.4104 42.7531C40.4104 43.3082 40.2652 43.705 39.9747 43.943C39.7908 44.0936 39.5764 44.1689 39.3324 44.1689C39.1403 44.1689 38.9788 44.1269 38.8488 44.0429C38.773 43.9954 38.6879 43.9135 38.594 43.7978V45.0995H38.166V41.5465Z" fill="white"/>
</svg>
