<svg width="1779" height="551" viewBox="0 0 1779 551" fill="none" xmlns="http://www.w3.org/2000/svg">
<g filter="url(#filter0_dd_1126_561)">
<path d="M20 327.589C20 327.589 240.5 80.5889 439.5 55.0889C638.5 29.5889 615.5 460.59 888 494.592C1160.5 528.593 1194 80.0865 1404 94.5889C1614 109.091 1625.5 443.589 1759 327.589" stroke="white" stroke-width="8"/>
</g>
<g filter="url(#filter1_f_1126_561)">
<path d="M20 327.589C20 327.589 240.5 80.5889 439.5 55.0889C638.5 29.5889 615.5 460.59 888 494.592C1160.5 528.593 1194 80.0865 1404 94.5889C1614 109.091 1625.5 443.589 1759 327.589" stroke="white" stroke-width="10"/>
</g>
<defs>
<filter id="filter0_dd_1126_561" x="-32.9805" y="0" width="1844.6" height="550.433" filterUnits="userSpaceOnUse" color-interpolation-filters="sRGB">
<feFlood flood-opacity="0" result="BackgroundImageFix"/>
<feColorMatrix in="SourceAlpha" type="matrix" values="0 0 0 0 0 0 0 0 0 0 0 0 0 0 0 0 0 0 127 0" result="hardAlpha"/>
<feOffset/>
<feGaussianBlur stdDeviation="12.5"/>
<feComposite in2="hardAlpha" operator="out"/>
<feColorMatrix type="matrix" values="0 0 0 0 1 0 0 0 0 0.305882 0 0 0 0 0.305882 0 0 0 1 0"/>
<feBlend mode="normal" in2="BackgroundImageFix" result="effect1_dropShadow_1126_561"/>
<feColorMatrix in="SourceAlpha" type="matrix" values="0 0 0 0 0 0 0 0 0 0 0 0 0 0 0 0 0 0 127 0" result="hardAlpha"/>
<feOffset/>
<feGaussianBlur stdDeviation="25"/>
<feComposite in2="hardAlpha" operator="out"/>
<feColorMatrix type="matrix" values="0 0 0 0 1 0 0 0 0 0.305882 0 0 0 0 0.305882 0 0 0 1 0"/>
<feBlend mode="normal" in2="effect1_dropShadow_1126_561" result="effect2_dropShadow_1126_561"/>
<feBlend mode="normal" in="SourceGraphic" in2="effect2_dropShadow_1126_561" result="shape"/>
</filter>
<filter id="filter1_f_1126_561" x="11.2739" y="43.9997" width="1756.01" height="462.433" filterUnits="userSpaceOnUse" color-interpolation-filters="sRGB">
<feFlood flood-opacity="0" result="BackgroundImageFix"/>
<feBlend mode="normal" in="SourceGraphic" in2="BackgroundImageFix" result="shape"/>
<feGaussianBlur stdDeviation="2.5" result="effect1_foregroundBlur_1126_561"/>
</filter>
</defs>
</svg>
