<svg width="512" height="512" viewBox="0 0 512 512" fill="none" xmlns="http://www.w3.org/2000/svg">
<g clip-path="url(#clip0_1077_353)">
<path d="M20.6911 76.387C21.745 76.3825 22.7989 76.3781 23.8848 76.3735C25.617 76.3738 25.617 76.3738 27.3841 76.374C28.6133 76.3704 29.8425 76.3667 31.1089 76.3629C35.2429 76.3518 39.3768 76.348 43.5108 76.3442C46.4686 76.3379 49.4265 76.3313 52.3844 76.3243C61.2705 76.3045 70.1567 76.2944 79.0428 76.2855C83.2285 76.2811 87.4141 76.2758 91.5997 76.2705C105.515 76.2535 119.43 76.239 133.345 76.2317C136.955 76.2298 140.565 76.2279 144.175 76.226C145.52 76.2252 145.52 76.2252 146.893 76.2245C161.43 76.2162 175.966 76.1908 190.502 76.1583C205.429 76.1252 220.356 76.1072 235.283 76.104C243.662 76.1019 252.042 76.0931 260.422 76.0675C267.558 76.0458 274.694 76.0378 281.83 76.0475C285.469 76.052 289.108 76.048 292.748 76.0307C296.698 76.0131 300.646 76.0201 304.596 76.0333C305.741 76.0223 306.886 76.0113 308.066 76C315.633 76.061 321.914 77.1073 327.553 82.0073C331.273 85.8901 332.571 88.916 332.533 93.9811C332.53 94.8292 332.526 95.6773 332.523 96.551C332.514 97.4327 332.504 98.3143 332.495 99.2226C332.49 100.116 332.485 101.009 332.48 101.929C332.467 104.133 332.449 106.337 332.426 108.541C333.795 108.531 333.795 108.531 335.191 108.521C343.823 108.46 352.455 108.415 361.087 108.385C365.524 108.37 369.96 108.348 374.397 108.314C378.685 108.281 382.973 108.264 387.261 108.256C388.891 108.25 390.52 108.24 392.15 108.223C411.932 108.033 411.932 108.033 419.886 113.679C423.081 117.381 425.516 121.233 427.938 125.387C428.768 126.792 428.768 126.792 429.615 128.226C435.22 137.837 440.494 147.599 445.777 157.359C446.231 158.198 446.686 159.037 447.154 159.901C451.421 167.783 455.685 175.666 459.915 183.564C462.254 187.931 464.611 192.289 466.979 196.642C467.865 198.277 468.744 199.915 469.615 201.556C474.421 210.595 479.366 218.512 486.731 226.021C490.295 229.672 493.415 233.591 496.6 237.517C499.85 241.5 503.174 245.428 506.51 249.351C512.565 256.494 512.565 256.494 512.594 261.548C512.605 262.562 512.616 263.576 512.627 264.621C512.628 265.733 512.629 266.845 512.629 267.99C512.639 269.162 512.648 270.334 512.657 271.541C512.679 274.756 512.691 277.971 512.696 281.186C512.7 283.195 512.707 285.205 512.715 287.214C512.742 294.228 512.756 301.242 512.76 308.256C512.764 314.788 512.797 321.32 512.843 327.853C512.881 333.465 512.898 339.077 512.899 344.689C512.899 348.039 512.912 351.389 512.94 354.739C512.97 358.478 512.964 362.217 512.951 365.956C512.975 367.615 512.975 367.615 513 369.307C512.912 377.681 512.912 377.681 509.722 381.324C502.471 387.259 495.726 387.128 486.387 387.003C484.577 386.996 484.577 386.996 482.731 386.99C478.899 386.973 475.066 386.936 471.234 386.897C468.627 386.882 466.02 386.869 463.413 386.856C457.04 386.823 450.667 386.773 444.295 386.71C444.079 387.313 443.863 387.916 443.64 388.537C443.351 389.336 443.063 390.135 442.765 390.958C442.481 391.747 442.198 392.536 441.905 393.348C440.685 396.554 439.231 399.622 437.714 402.719C436.99 402.719 436.267 402.719 435.521 402.719C435.182 403.504 434.842 404.288 434.493 405.096C433.327 407.722 433.327 407.722 432.231 409.724C431.507 409.724 430.783 409.724 430.037 409.724C429.664 410.559 429.664 410.559 429.283 411.412C426.795 415.411 423.874 418.269 419.07 419.73C419.07 420.39 419.07 421.051 419.07 421.731C404.637 431.866 385.461 436.147 367.522 434.739C347.312 432.113 329.862 423.644 317.209 408.786C311.641 401.64 307.692 395.398 306.104 386.71C271.721 386.71 237.338 386.71 201.913 386.71C201.551 388.691 201.189 390.672 200.816 392.713C199.234 396.167 197.283 399.428 195.333 402.719C194.722 403.751 194.111 404.783 193.482 405.846C193.007 406.465 192.532 407.085 192.042 407.722C191.318 407.722 190.595 407.722 189.849 407.722C189.476 408.837 189.476 408.837 189.095 409.974C187.36 413.289 185.387 414.563 182.172 416.728C181.38 417.471 180.588 418.214 179.772 418.979C177.785 420.73 177.785 420.73 175.591 420.73C175.591 421.391 175.591 422.051 175.591 422.732C157.237 432.9 137.437 437.795 116.229 433.113C97.844 428.685 82.0271 418.617 71.6311 403.955C69.0123 399.741 66.9368 395.628 65.2792 391.029C64.8403 389.815 64.8403 389.815 64.3925 388.576C64.1714 387.96 63.9503 387.344 63.7225 386.71C63.1188 386.716 62.5151 386.723 61.8931 386.73C55.5947 386.796 49.2964 386.842 42.9977 386.875C40.6489 386.89 38.3001 386.91 35.9513 386.936C32.57 386.973 29.189 386.99 25.8075 387.003C24.7619 387.018 23.7163 387.034 22.639 387.05C15.8832 387.051 11.036 386.323 5.78321 382.094C1.2135 377.111 -1.03375 373.456 -0.917247 366.76C-0.0664455 362.147 2.0311 359.004 5.59471 355.691C12.0922 351.49 18.2675 351.143 26.0217 351.298C27.1047 351.303 28.1878 351.309 29.3036 351.315C32.7343 351.337 36.1637 351.387 39.594 351.438C41.9317 351.458 44.2694 351.477 46.6072 351.493C52.3127 351.537 58.0175 351.604 63.7225 351.688C63.8638 351.074 64.0051 350.46 64.1506 349.827C64.4361 348.615 64.4361 348.615 64.7274 347.378C65.0072 346.178 65.0072 346.178 65.2926 344.954C68.7371 332.404 82.4989 319.223 94.4315 312.665C112.683 303.012 132.057 299.792 152.722 304.755C170.756 309.573 185.405 320.239 195.333 334.678C198.381 339.817 200.985 345.145 203.01 350.688C236.669 351.018 270.328 351.348 305.008 351.688C306.636 346.735 306.636 346.735 308.298 341.682C317.016 324.545 332.959 312.177 352.168 305.66C370.848 300.14 389.785 301.874 407.417 309.413C424.678 317.937 435.693 330.424 443.198 346.685C443.56 348.336 443.922 349.987 444.295 351.688C454.429 351.688 464.563 351.688 475.004 351.688C475.159 341.119 475.256 330.552 475.257 319.981C475.259 315.071 475.285 310.163 475.369 305.253C475.448 300.503 475.462 295.756 475.432 291.006C475.432 289.206 475.455 287.405 475.502 285.605C475.804 273.236 473.613 266.11 464.154 257.073C463.555 256.504 462.957 255.935 462.341 255.349C460.746 253.629 460.746 253.629 458.801 250.079C456.746 246.338 454.966 243.57 450.875 241.622C441.273 239.538 431.139 240.145 421.337 240.334C417.391 240.396 413.446 240.386 409.5 240.384C402.031 240.389 394.565 240.451 387.097 240.537C373.724 240.69 360.351 240.745 346.977 240.778C342.289 240.792 337.602 240.832 332.914 240.892C329.31 240.935 325.705 240.953 322.101 240.977C320.811 241.001 319.521 241.024 318.192 241.049C310.956 241.07 306.492 240.584 300.621 236.619C298.71 234.836 298.71 234.836 297.467 233.116C297.04 232.549 296.613 231.981 296.174 231.397C294.166 227.946 293.903 224.661 293.908 220.8C293.906 219.352 293.906 219.352 293.904 217.875C293.908 216.823 293.911 215.77 293.916 214.686C293.915 213.573 293.915 212.46 293.915 211.313C293.916 207.631 293.924 203.95 293.933 200.268C293.935 197.717 293.937 195.165 293.938 192.613C293.941 186.582 293.95 180.55 293.961 174.519C293.973 167.652 293.979 160.784 293.985 153.917C293.996 139.792 294.016 125.667 294.04 111.543C292.602 111.548 291.164 111.554 289.683 111.559C255.535 111.689 221.387 111.788 187.24 111.849C183.035 111.857 178.83 111.864 174.625 111.872C173.37 111.875 173.37 111.875 172.089 111.877C158.542 111.903 144.996 111.951 131.449 112.006C117.545 112.062 103.641 112.095 89.7365 112.107C81.1596 112.116 72.5831 112.142 64.0063 112.19C57.425 112.226 50.844 112.23 44.2625 112.222C41.566 112.223 38.8695 112.235 36.1731 112.258C32.4874 112.288 28.8038 112.281 25.118 112.265C24.0543 112.282 22.9906 112.3 21.8947 112.318C14.1498 112.225 9.29501 110.098 3.40121 105.539C-0.428269 101.499 -1.11422 96.7579 -0.985794 91.5304C0.832186 85.1171 5.19319 81.1702 11.0785 77.5219C14.3332 76.5837 17.2887 76.3937 20.6911 76.387ZM332.426 143.562C332.426 164.034 332.426 184.507 332.426 205.6C364.276 205.6 396.126 205.6 428.94 205.6C421.144 190.53 421.144 190.53 413.106 175.574C412.611 174.67 412.117 173.767 411.607 172.836C410.587 170.975 409.567 169.114 408.545 167.254C406.973 164.391 405.406 161.526 403.839 158.661C402.839 156.836 401.837 155.01 400.836 153.185C400.369 152.331 399.902 151.476 399.42 150.596C398.777 149.426 398.777 149.426 398.12 148.232C397.743 147.545 397.366 146.858 396.978 146.15C396.148 144.568 396.148 144.568 394.941 143.562C392.989 143.468 391.033 143.445 389.078 143.448C387.809 143.449 386.54 143.449 385.232 143.449C383.216 143.456 383.216 143.456 381.159 143.464C379.931 143.465 378.703 143.466 377.438 143.467C372.83 143.473 368.223 143.487 363.615 143.499C348.177 143.53 348.177 143.53 332.426 143.562ZM109.717 346.123C108.124 347.908 106.593 349.603 104.761 351.188C99.7317 356.042 98.6665 364.286 98.8185 370.7C100.222 380.323 104.073 386.998 111.842 393.526C119.438 398.377 127.974 400.27 137.205 399.718C146.599 397.867 153.934 394.493 160.236 387.71C165.797 378.923 168.679 370.728 166.311 360.514C165.543 358.461 164.627 356.614 163.527 354.69C163.098 353.937 162.67 353.184 162.229 352.408C157.442 344.986 150.511 340.664 141.455 338.305C130.526 336.697 117.157 337.706 109.717 346.123ZM351.071 345.685C351.071 346.345 351.071 347.006 351.071 347.686C350.347 347.686 349.623 347.686 348.878 347.686C347.451 349.267 347.451 349.267 346.136 351.313C345.672 351.986 345.208 352.66 344.73 353.353C340.34 361.031 339.503 369.993 341.993 378.369C343.034 380.606 344.207 382.631 345.587 384.708C345.959 385.333 346.331 385.957 346.714 386.6C351.081 393.123 358.674 397.072 366.631 399.092C375.883 400.476 384.879 399.719 393.125 395.356C402.11 389.421 407.169 381.714 409.062 371.701C409.801 363.318 406.936 355.41 401.522 348.687C394.096 341.357 385.938 337.832 374.994 337.43C365.734 337.556 358.099 340.248 351.071 345.685Z" fill="white"/>
<path d="M46.9004 142.86C48.0821 142.854 49.2638 142.848 50.4813 142.842C51.7692 142.841 53.0571 142.84 54.3841 142.839C55.761 142.834 57.1379 142.829 58.5148 142.824C62.2484 142.811 65.9819 142.804 69.7155 142.8C72.0506 142.797 74.3856 142.793 76.7206 142.788C84.0334 142.775 91.3461 142.765 98.6589 142.761C107.088 142.757 115.516 142.739 123.945 142.71C130.469 142.688 136.993 142.678 143.517 142.677C147.41 142.676 151.302 142.67 155.194 142.652C158.858 142.636 162.521 142.634 166.184 142.642C168.16 142.644 170.136 142.63 172.112 142.616C179.483 142.65 186.022 142.829 192.023 147.613C195.992 152.603 198 156.316 198 162.875C197.198 167.791 194.583 171.612 191 175C186.729 177.488 183.626 178.377 178.7 178.388C177.455 178.398 176.21 178.407 174.928 178.418C173.561 178.413 172.195 178.409 170.828 178.404C169.379 178.41 167.93 178.417 166.48 178.425C162.555 178.443 158.629 178.442 154.704 178.436C151.423 178.433 148.143 178.439 144.863 178.445C137.123 178.459 129.384 178.457 121.645 178.446C113.666 178.435 105.687 178.449 97.7086 178.475C90.8515 178.498 83.9945 178.504 77.1374 178.498C73.0449 178.495 68.9525 178.497 64.86 178.515C61.0119 178.53 57.1644 178.526 53.3163 178.507C51.9062 178.504 50.4961 178.507 49.0861 178.517C40.468 178.576 35.6092 178.478 29.3555 172.402C25.8445 167.999 24.622 164.879 24.7266 159.188C25.3104 154.517 27.2498 150.676 30.6485 147.422C35.8154 143.496 40.4609 142.878 46.9004 142.86Z" fill="white"/>
<path d="M18.1416 206.733C19.9942 206.72 19.9942 206.72 21.8843 206.707C23.245 206.707 24.6058 206.708 25.9666 206.709C27.4058 206.703 28.8451 206.697 30.2843 206.689C34.1872 206.671 38.09 206.667 41.993 206.665C44.4325 206.664 46.872 206.66 49.3115 206.654C57.8253 206.636 66.339 206.628 74.8528 206.629C82.7844 206.631 90.7157 206.609 98.6472 206.578C105.462 206.552 112.276 206.541 119.091 206.542C123.159 206.543 127.227 206.537 131.295 206.516C135.121 206.497 138.946 206.496 142.772 206.511C144.174 206.513 145.576 206.508 146.978 206.496C160.057 206.391 160.057 206.391 165 211C168.888 214.86 171.15 218.111 171.312 223.625C171.237 228.843 170.276 232.865 167 237C161.813 241.152 156.604 242.121 150.144 242.147C148.348 242.158 148.348 242.158 146.516 242.169C145.206 242.172 143.896 242.174 142.546 242.177C141.149 242.183 139.753 242.19 138.357 242.197C133.774 242.218 129.192 242.228 124.609 242.238C123.03 242.242 121.45 242.246 119.87 242.251C112.447 242.27 105.024 242.284 97.6016 242.292C89.0434 242.302 80.4853 242.328 71.9272 242.369C65.3053 242.399 58.6836 242.414 52.0617 242.417C48.1099 242.419 44.1584 242.428 40.2066 242.453C36.4866 242.477 32.7671 242.481 29.0471 242.471C27.04 242.47 25.0329 242.489 23.0259 242.509C15.2303 242.464 9.5991 241.867 3.44441 236.692C0.360202 233.501 -0.661768 230.538 -0.796143 226.137C-0.780916 225.453 -0.765688 224.768 -0.75 224.062C-0.741863 223.355 -0.733726 222.647 -0.725342 221.917C-0.509495 217.551 0.134775 214.785 3.1875 211.625C7.77916 207.884 12.2867 206.751 18.1416 206.733Z" fill="white"/>
<path d="M47.595 269.839C48.3549 269.834 49.1147 269.829 49.8976 269.824C52.407 269.809 54.9164 269.802 57.4258 269.797C59.1745 269.791 60.9232 269.785 62.672 269.78C66.3379 269.769 70.0038 269.763 73.6697 269.76C78.3571 269.754 83.0441 269.73 87.7314 269.702C91.344 269.683 94.9566 269.678 98.5693 269.676C100.297 269.673 102.024 269.665 103.752 269.652C106.174 269.635 108.595 269.637 111.017 269.644C111.724 269.634 112.431 269.625 113.16 269.616C120.227 269.675 125.9 272.042 131 277C134.249 281.818 134.903 286.346 134 292C132.895 294.885 131.562 297.315 130 300C129.34 300 128.68 300 128 300C128 300.66 128 301.32 128 302C122.783 304.583 118.526 305.436 112.681 305.388C111.48 305.396 111.48 305.396 110.254 305.404C107.626 305.417 104.999 305.409 102.371 305.398C100.535 305.4 98.6981 305.403 96.8616 305.407C93.021 305.412 89.1807 305.405 85.3401 305.391C80.4251 305.374 75.5107 305.384 70.5957 305.402C66.8064 305.413 63.0172 305.409 59.2278 305.401C57.4158 305.399 55.6037 305.402 53.7917 305.409C51.2573 305.417 48.7236 305.405 46.1892 305.388C45.4457 305.394 44.7022 305.4 43.9361 305.407C38.5613 305.341 34.416 304.199 30.3907 300.535C26.454 295.453 24.4121 291.903 24.5508 285.449C25.5798 279.839 29.1743 275.391 33.625 272C38.2934 270.034 42.5677 269.847 47.595 269.839Z" fill="white"/>
</g>
<defs>
<clipPath id="clip0_1077_353">
<rect width="512" height="512" fill="white"/>
</clipPath>
</defs>
</svg>
