<?xml version="1.0" encoding="UTF-8"?>
<svg version="1.1" xmlns="http://www.w3.org/2000/svg" width="512" height="512">
<path d="M0 0 C0.96096439 -0.00445784 1.92192877 -0.00891569 2.91201329 -0.01350862 C4.49136698 -0.01323207 4.49136698 -0.01323207 6.1026268 -0.01294994 C7.22337687 -0.01662663 8.34412694 -0.02030332 9.49883914 -0.02409142 C13.2681198 -0.03513692 17.0373729 -0.03897357 20.80666733 -0.04278088 C23.50360402 -0.04904479 26.20053776 -0.05567869 28.89747238 -0.0626936 C36.99972786 -0.08244337 45.10198456 -0.09252166 53.20425808 -0.10142139 C57.02064986 -0.10580613 60.83704025 -0.1111724 64.65343094 -0.11641026 C77.34096743 -0.13341994 90.02850306 -0.14791442 102.71604919 -0.155159 C106.00748572 -0.15706885 109.29892224 -0.15898919 112.59035873 -0.16094494 C113.81744659 -0.16167055 113.81744659 -0.16167055 115.06932411 -0.16241082 C128.32332099 -0.17071235 141.57722765 -0.19605249 154.83118513 -0.22852562 C168.44122156 -0.26159917 182.05121215 -0.27960796 195.66128898 -0.28280324 C203.30188961 -0.2849679 210.94235862 -0.29371032 218.58292007 -0.31926441 C225.08936142 -0.34097536 231.59563916 -0.34901989 238.10211262 -0.33929763 C241.42072205 -0.33475409 244.73872038 -0.33882506 248.05732918 -0.35605907 C251.65856993 -0.37371481 255.25895422 -0.36670181 258.86019516 -0.35352612 C259.90417473 -0.36449536 260.9481543 -0.37546461 262.02376962 -0.38676625 C268.92344845 -0.32581743 274.65022932 0.71986912 279.79226232 5.61693496 C283.18347035 9.49736484 284.36700794 12.52139946 284.33303452 17.58343983 C284.32981186 18.43099842 284.3265892 19.27855701 284.32326889 20.1517992 C284.31488998 21.03287342 284.30651108 21.91394764 284.29787827 22.82172108 C284.29336655 23.71439686 284.28885483 24.60707264 284.28420639 25.5267992 C284.27242809 27.72934094 284.25597991 29.93174707 284.23537827 32.13422108 C285.48326378 32.12422832 285.48326378 32.12422832 286.7563591 32.1140337 C294.62666129 32.05372603 302.49688499 32.00814723 310.36736584 31.97878456 C314.41290775 31.96318103 318.45825747 31.94204095 322.50368881 31.90790272 C326.41351375 31.87511827 330.32315474 31.85732818 334.23310661 31.84958935 C335.71892883 31.84407986 337.20474188 31.83332181 338.690485 31.81703091 C356.72757967 31.62726444 356.72757967 31.62726444 363.98000717 37.26947498 C366.89290803 40.96940773 369.11269518 44.8189097 371.32131577 48.97015858 C372.07812134 50.37483891 372.07812134 50.37483891 372.85021591 51.80789661 C377.96149105 61.41262521 382.77014097 71.16866538 387.58694077 80.92328358 C388.00109993 81.76148388 388.41525909 82.59968418 388.84196854 83.46328449 C392.73288346 91.34020133 396.62056185 99.21866093 400.47756577 107.11224842 C402.61050429 111.47594738 404.75953214 115.83140377 406.91876984 120.18214512 C407.72593182 121.81601184 408.52729433 123.4527592 409.32221985 125.09261417 C413.70410619 134.12640918 418.21308327 142.03873642 424.92785263 149.54324818 C428.17740983 153.19196805 431.02234079 157.10829432 433.92678452 161.03265858 C436.88946075 165.01297149 439.92086478 168.93801733 442.96194077 172.85858631 C448.48289477 179.99763545 448.48289477 179.99763545 448.50953293 185.0482378 C448.51950806 186.06180347 448.52948318 187.07536915 448.53976059 188.11964893 C448.54042526 189.2308762 448.54108994 190.34210346 448.54177475 191.48700428 C448.55009827 192.65798664 448.55842178 193.828969 448.56699753 195.03543568 C448.5869854 198.24840048 448.59774222 201.46121499 448.60282397 204.67423368 C448.60646762 206.68258209 448.61270778 208.69090558 448.61982536 210.6992445 C448.64432349 217.70874978 448.6573721 224.71818104 448.66091537 231.72772694 C448.66454887 238.25632687 448.69442932 244.78445616 448.73631996 251.31291229 C448.77104353 256.92152905 448.78646418 262.52999003 448.78716141 268.13871354 C448.7879537 271.48705311 448.799039 274.8345326 448.82515907 278.18282986 C448.85199078 281.92005542 448.84727072 285.65598183 448.8347435 289.39325428 C448.85699493 291.05098614 448.85699493 291.05098614 448.87969589 292.74220753 C448.79974474 301.11122579 448.79974474 301.11122579 445.89080429 304.75198841 C439.279875 310.6827775 433.12930761 310.55185925 424.61428452 310.42718983 C422.9644381 310.42082256 422.9644381 310.42082256 421.28126144 310.41432667 C417.78654581 310.39760509 414.29241805 310.35996403 410.79787827 310.32172108 C408.4209335 310.30666585 406.04397965 310.29297892 403.66701889 310.28070545 C397.85627323 310.24772292 392.04586776 310.19758838 386.23537827 310.13422108 C386.0383934 310.73677723 385.84140854 311.33933338 385.63845444 311.96014881 C385.37524399 312.7588036 385.11203354 313.55745838 384.84084702 314.38031483 C384.58198715 315.16849598 384.32312729 315.95667713 384.05642319 316.76874256 C382.94442114 319.9724856 381.61845173 323.03877094 380.23537827 326.13422108 C379.57537827 326.13422108 378.91537827 326.13422108 378.23537827 326.13422108 C377.92600327 326.91797108 377.61662827 327.70172108 377.29787827 328.50922108 C376.23537827 331.13422108 376.23537827 331.13422108 375.23537827 333.13422108 C374.57537827 333.13422108 373.91537827 333.13422108 373.23537827 333.13422108 C372.89506577 333.96953358 372.89506577 333.96953358 372.54787827 334.82172108 C370.27937378 338.81860994 367.61637881 341.67388756 363.23537827 343.13422108 C363.23537827 343.79422108 363.23537827 344.45422108 363.23537827 345.13422108 C350.07611179 355.26358872 332.59140848 359.54176616 316.23537827 358.13422108 C297.80794561 355.50997705 281.89714326 347.04602255 270.36037827 332.19672108 C265.28402778 325.05526027 261.68263429 318.81775721 260.23537827 310.13422108 C228.88537827 310.13422108 197.53537827 310.13422108 165.23537827 310.13422108 C164.90537827 312.11422108 164.57537827 314.09422108 164.23537827 316.13422108 C162.7925573 319.58557339 161.01411591 322.8449247 159.23537827 326.13422108 C158.67850327 327.16547108 158.12162827 328.19672108 157.54787827 329.25922108 C157.11475327 329.87797108 156.68162827 330.49672108 156.23537827 331.13422108 C155.57537827 331.13422108 154.91537827 331.13422108 154.23537827 331.13422108 C153.89506577 332.24797108 153.89506577 332.24797108 153.54787827 333.38422108 C151.96661941 336.69733486 150.16698066 337.97041931 147.23537827 340.13422108 C146.51350327 340.87672108 145.79162827 341.61922108 145.04787827 342.38422108 C143.23537827 344.13422108 143.23537827 344.13422108 141.23537827 344.13422108 C141.23537827 344.79422108 141.23537827 345.45422108 141.23537827 346.13422108 C124.50071747 356.2960952 106.44705409 361.18893637 87.11037827 356.50922108 C70.34685696 352.08361935 55.9252926 342.02168691 46.44631577 327.36859608 C44.05858216 323.15771613 42.16617793 319.04709841 40.65481186 314.45087147 C40.25460327 313.23760937 40.25460327 313.23760937 39.84630966 311.99983692 C39.6447023 311.38418369 39.44309494 310.76853046 39.23537827 310.13422108 C38.68493851 310.14088291 38.13449875 310.14754475 37.567379 310.15440845 C31.8246102 310.2209163 26.08195131 310.26608562 20.33889389 310.299016 C18.1972471 310.31407749 16.05563102 310.33453079 13.9140892 310.36053944 C10.83100415 310.39703835 7.74832789 310.4139741 4.66506577 310.42718983 C3.71171341 310.44267368 2.75836105 310.45815754 1.77611923 310.4741106 C-4.38376574 310.47566065 -8.8033207 309.74750596 -13.59274673 305.52093983 C-17.75933597 300.54163675 -19.80834589 296.88884258 -19.70212173 290.19672108 C-18.92637384 285.58631029 -17.01386467 282.44517558 -13.76462173 279.13422108 C-7.84029858 274.93619508 -2.20972493 274.58881488 4.86037827 274.74359608 C5.84788071 274.74925587 6.83538315 274.75491566 7.85280991 274.76074696 C10.98084344 274.78298739 14.10769588 274.83316081 17.23537827 274.88422108 C19.36687204 274.90430201 21.49838392 274.92254998 23.62990952 274.93890858 C28.83212969 274.98281135 34.03366956 275.04959833 39.23537827 275.13422108 C39.36420898 274.52028996 39.4930397 273.90635883 39.62577438 273.27382374 C39.88607689 272.06257076 39.88607689 272.06257076 40.15163803 270.82684803 C40.40675911 269.62751385 40.40675911 269.62751385 40.66703415 268.40395069 C43.80766663 255.86157302 56.35543224 242.68840543 67.23537827 236.13422108 C83.87678581 226.48763351 101.54140572 223.26928736 120.38405991 228.22943592 C136.82687702 233.04461686 150.18339806 243.70378273 159.23537827 258.13422108 C162.01511946 263.26967515 164.38881233 268.59452329 166.23537827 274.13422108 C196.92537827 274.46422108 227.61537827 274.79422108 259.23537827 275.13422108 C260.72037827 270.18422108 260.72037827 270.18422108 262.23537827 265.13422108 C270.18455831 248.00735134 284.72106024 235.64729286 302.23537827 229.13422108 C319.26748315 223.61707299 336.53413018 225.35040956 352.61037827 232.88422108 C368.34929747 241.40325718 378.39271693 253.88290039 385.23537827 270.13422108 C385.56537827 271.78422108 385.89537827 273.43422108 386.23537827 275.13422108 C395.47537827 275.13422108 404.71537827 275.13422108 414.23537827 275.13422108 C414.37653646 264.57076615 414.46551697 254.01025173 414.4659729 243.44583511 C414.46820087 238.53871654 414.49211934 233.6338163 414.5678978 228.72723866 C414.64037762 223.98010588 414.65289062 219.23605921 414.62608719 214.48848629 C414.62603195 212.68934517 414.64657384 210.89006641 414.68933487 209.09143353 C414.96510009 196.72914599 412.96704527 189.60736168 404.34246445 180.57625294 C403.79689518 180.00761084 403.25132591 179.43896873 402.68922424 178.85309505 C401.23537827 177.13422108 401.23537827 177.13422108 399.46203232 173.58684254 C397.58839178 169.84805343 395.96557009 167.08171785 392.23537827 165.13422108 C383.47993162 163.05214101 374.23983222 163.65854901 365.30257177 163.84729099 C361.70514235 163.90944444 358.10792868 163.89986764 354.51006699 163.89716053 C347.70029706 163.90207972 340.89244117 163.9644771 334.08326256 164.05077744 C321.89009258 164.20345465 309.69626453 164.25824552 297.50224888 164.29156399 C293.22771068 164.30552495 288.95436061 164.34466369 284.68023658 164.40526962 C281.39388889 164.44798581 278.10736099 164.46627508 274.82082748 164.48968983 C273.64453781 164.51357273 272.46824814 164.53745564 271.25631332 164.56206226 C264.65928716 164.58280763 260.58906964 164.09711396 255.23537827 160.13422108 C253.49319077 158.35297108 253.49319077 158.35297108 252.36037827 156.63422108 C251.97108139 156.06703358 251.58178452 155.49984608 251.18069077 154.91547108 C249.35041392 151.46668496 249.11087466 148.18349289 249.11512375 144.32532215 C249.11306175 142.87825382 249.11306175 142.87825382 249.1109581 141.40195179 C249.11455338 140.3503487 249.11814865 139.29874561 249.12185287 138.21527576 C249.12170685 137.10278461 249.12156082 135.99029346 249.12141037 134.84409046 C249.12210737 131.16473921 249.12988987 127.4854385 249.13772202 123.80609608 C249.13958695 121.25590511 249.1410105 118.70571379 249.14200974 116.15552235 C249.14543854 110.12784778 249.1533211 104.10019494 249.16335922 98.07252908 C249.17454064 91.20920788 249.18003593 84.34588581 249.18505466 77.48255777 C249.19550425 63.36643549 249.21309105 49.25032928 249.23537827 35.13422108 C247.92431893 35.13975183 246.6132596 35.14528259 245.2624712 35.15098095 C214.12712789 35.28098198 182.9918564 35.379891 151.85630504 35.44061305 C148.02245723 35.44811712 144.18860999 35.45588307 140.35476303 35.46381092 C139.20990815 35.46617171 139.20990815 35.46617171 138.04192489 35.4685802 C125.69038378 35.49467444 113.33901056 35.54197429 100.98756898 35.59713785 C88.30992688 35.65328525 75.63237258 35.68658183 62.95461124 35.69875205 C55.13426514 35.70697694 47.3143936 35.73293561 39.49419361 35.78171988 C33.49340493 35.81724296 27.49302281 35.82094261 21.49211693 35.81286716 C19.03349259 35.81451694 16.57485018 35.82644027 14.11633301 35.84945393 C10.75570437 35.87936729 7.39709561 35.87210846 4.03641891 35.85574818 C3.06655172 35.87322523 2.09668453 35.89070227 1.09742743 35.90870893 C-5.96425172 35.81597091 -10.39073973 33.69080595 -15.76462173 29.13422108 C-19.25627898 25.09699238 -19.88171734 20.35848655 -19.76462173 15.13422108 C-18.10701541 8.72480995 -14.13072127 4.78028487 -8.76462173 1.13422108 C-5.79702553 0.19655167 -3.10220359 0.00668874 0 0 Z M284.23537827 67.13422108 C284.23537827 87.59422108 284.23537827 108.05422108 284.23537827 129.13422108 C313.27537827 129.13422108 342.31537827 129.13422108 372.23537827 129.13422108 C365.12660053 114.07371562 365.12660053 114.07371562 357.79787827 99.12640858 C357.34686752 98.22343037 356.89585678 97.32045216 356.43117905 96.39011097 C355.50149397 94.5300734 354.57084137 92.67051907 353.63918686 90.81146717 C352.2059672 87.95051147 350.77716651 85.08737607 349.34865952 82.22406483 C348.43615636 80.39971738 347.52340589 78.5754936 346.61037827 76.75140858 C346.18442368 75.89747517 345.75846909 75.04354176 345.31960678 74.16373158 C344.73264023 72.99452671 344.73264023 72.99452671 344.13381577 71.80170155 C343.79011948 71.11510456 343.44642319 70.42850758 343.09231186 69.72110462 C342.3359249 68.13936826 342.3359249 68.13936826 341.23537827 67.13422108 C339.45545903 67.04051483 337.67181087 67.01677837 335.889431 67.02069569 C334.73229599 67.02081654 333.57516098 67.02093739 332.38296127 67.0210619 C330.54453659 67.02873585 330.54453659 67.02873585 328.66897202 67.03656483 C327.54946152 67.03757191 326.42995102 67.03857899 325.27651596 67.03961658 C321.07529305 67.04486758 316.87408468 67.05882869 312.67287827 67.07172108 C298.59631577 67.10265858 298.59631577 67.10265858 284.23537827 67.13422108 Z M81.17287827 269.57172108 C79.71988499 271.3561664 78.32425515 273.04995263 76.65334702 274.63422108 C72.06805816 279.48477458 71.09682416 287.72378438 71.23537827 294.13422108 C72.51518278 303.75139289 76.02667335 310.42276396 83.11037827 316.94672108 C90.0358866 321.79457691 97.81880108 323.68612778 106.23537827 323.13422108 C114.80119831 321.28509167 121.4884767 317.9126178 127.23537827 311.13422108 C132.30491536 302.35178357 134.93307031 294.16229024 132.77444077 283.95453358 C132.07394831 281.90250275 131.23856817 280.05668387 130.23537827 278.13422108 C129.84479233 277.38140858 129.45420639 276.62859608 129.05178452 275.85297108 C124.68779713 268.43542877 118.36741843 264.11605341 110.11037827 261.75922108 C100.14557213 260.15199428 87.95626293 261.16032409 81.17287827 269.57172108 Z M301.23537827 269.13422108 C301.23537827 269.79422108 301.23537827 270.45422108 301.23537827 271.13422108 C300.57537827 271.13422108 299.91537827 271.13422108 299.23537827 271.13422108 C297.93458877 272.71433954 297.93458877 272.71433954 296.73537827 274.75922108 C296.31256577 275.4321117 295.88975327 276.10500233 295.45412827 276.79828358 C291.45105776 284.47083538 290.68735287 293.42744637 292.95803452 301.79828358 C293.90717873 304.03472864 294.97700956 306.05770506 296.23537827 308.13422108 C296.5744017 308.75812733 296.91342514 309.38203358 297.26272202 310.02484608 C301.24481066 316.5435677 308.16744159 320.49068519 315.42287827 322.50922108 C323.85877165 323.89215442 332.06123826 323.13522228 339.57912827 318.77484608 C347.77213996 312.84408388 352.38503998 305.14118314 354.11037827 295.13422108 C354.78462171 286.75674622 352.17185456 278.85331381 347.23537827 272.13422108 C340.4646282 264.80872468 333.0261979 261.28614989 323.04787827 260.88422108 C314.60456276 261.01066008 307.64371785 263.7010636 301.23537827 269.13422108 Z " fill="#000000" transform="translate(63.76462173461914,76.86577892303467)"/>
<path d="M0 0 C1.18170776 -0.00571014 2.36341553 -0.01142029 3.58093262 -0.01730347 C4.86884201 -0.01842133 6.1567514 -0.01953918 7.48368835 -0.02069092 C8.86059196 -0.02532281 10.23749429 -0.03034797 11.61439514 -0.03573608 C15.34798774 -0.04882554 19.08156239 -0.05529817 22.81517434 -0.05974674 C25.15018405 -0.06268279 27.4851889 -0.06678857 29.82019615 -0.07125092 C37.13298243 -0.08491616 44.44575755 -0.09458782 51.75855571 -0.09845281 C60.18716169 -0.10293263 68.61560543 -0.12048103 77.04416209 -0.1494534 C83.56832881 -0.17109783 90.09244997 -0.18115854 96.61665219 -0.18249393 C100.50917031 -0.18353989 104.40153571 -0.18940323 108.29401588 -0.20731354 C111.9573105 -0.22384235 115.62033836 -0.22592661 119.28365707 -0.21717453 C121.25972184 -0.21604222 123.23577796 -0.22972196 125.21179199 -0.243927 C132.58270588 -0.20943626 139.12184735 -0.03105351 145.12309265 4.75372314 C149.0918591 9.74335726 151.09965515 13.45643989 151.09965515 20.01544189 C150.29754088 24.93193055 147.68306165 28.75235735 144.09965515 32.14044189 C139.82892805 34.62797511 136.72570414 35.51701951 131.79985046 35.52812195 C130.55497864 35.53802658 129.31010681 35.54793121 128.0275116 35.55813599 C126.66093345 35.55389853 125.29435627 35.54934073 123.92778015 35.54449463 C122.47851537 35.55020122 121.02925507 35.5571666 119.58000183 35.56529236 C115.65439458 35.58320559 111.72901107 35.58205908 107.80337524 35.57634997 C104.52299012 35.57325594 101.24264785 35.57935284 97.96226883 35.58538872 C90.22287164 35.59942584 82.48358486 35.597879 74.7441864 35.58648682 C66.76540289 35.57500166 58.78695535 35.58908964 50.80821609 35.61588329 C43.95113384 35.6380463 37.094157 35.64467647 30.23704147 35.63880688 C26.1444926 35.63543809 22.05215918 35.63784728 17.9596405 35.65505791 C14.11157278 35.67053508 10.2640027 35.66656343 6.41595459 35.64775276 C5.00587051 35.6440692 3.59574949 35.64716867 2.18569946 35.65763855 C-6.43237189 35.71673218 -11.29119894 35.61821072 -17.5448761 29.54278564 C-21.05588475 25.1393467 -22.27840934 22.0196504 -22.17378235 16.32794189 C-21.58997157 11.65745564 -19.65060589 7.81604725 -16.25190735 4.56231689 C-11.08496298 0.6363417 -6.43943521 0.01869191 0 0 Z " fill="#000000" transform="translate(46.90034484863281,142.85955810546875)"/>
<path d="M0 0 C1.85262451 -0.01279495 1.85262451 -0.01279495 3.74267578 -0.02584839 C5.10343946 -0.02514943 6.46420304 -0.02422641 7.82496643 -0.02310181 C9.26422982 -0.02908898 10.70349 -0.03589496 12.14274597 -0.04345703 C16.04563807 -0.06110304 19.94844244 -0.06581176 23.85137057 -0.0670886 C26.29089756 -0.06851132 28.73040232 -0.07278314 31.16992378 -0.07808304 C39.68369587 -0.0965772 48.19740539 -0.10475424 56.7111969 -0.10317993 C64.64279928 -0.10197801 72.57412977 -0.12309163 80.50566334 -0.15466726 C87.32025189 -0.180828 94.13475161 -0.19154735 100.94938999 -0.19026911 C105.01737697 -0.18975951 109.08512213 -0.19544197 113.15305901 -0.21662521 C116.97893205 -0.23600492 120.8043325 -0.2361343 124.63022232 -0.22159195 C126.03225076 -0.21950253 127.43430876 -0.22421279 128.83628654 -0.23631287 C141.91516886 -0.34186077 141.91516886 -0.34186077 146.8584137 4.26742554 C150.74627169 8.12757908 153.00872949 11.3781624 153.1709137 16.89242554 C153.09550394 22.11078101 152.13421484 26.13208474 148.8584137 30.26742554 C143.67104106 34.41973078 138.46200309 35.38806484 132.00239563 35.41459656 C130.20665352 35.42532951 130.20665352 35.42532951 128.37463379 35.4362793 C127.06442764 35.4389682 125.7542215 35.4416571 124.40431213 35.44442749 C123.00785148 35.45069535 121.61139249 35.45734244 120.2149353 35.46434021 C115.63256483 35.48534418 111.05019417 35.49573899 106.4677887 35.50570679 C104.8879876 35.50975568 103.30818667 35.51387264 101.72838593 35.51805687 C94.30560845 35.53710029 86.88284087 35.55133324 79.46004367 35.55966884 C70.90177037 35.56943921 62.34375585 35.59575691 53.78557372 35.63616973 C47.16376459 35.66636204 40.54202951 35.68114065 33.9201529 35.68444985 C29.9683217 35.68679673 26.01676722 35.69570969 22.06501007 35.72091103 C18.34504159 35.74425169 14.62553087 35.74840125 10.90550804 35.73814964 C8.89840134 35.73742104 6.89131757 35.75646978 4.88430786 35.7762146 C-2.91126069 35.73142051 -8.54248611 35.13450415 -14.69717789 29.95943165 C-17.78138438 26.76845801 -18.80335476 23.80551785 -18.93772888 19.40463257 C-18.92250183 18.71997925 -18.90727478 18.03532593 -18.8915863 17.32992554 C-18.8834491 16.62206909 -18.87531189 15.91421265 -18.8669281 15.18490601 C-18.65108117 10.81842885 -18.00681137 8.05202938 -14.9540863 4.89242554 C-10.36242828 1.15107455 -5.85485218 0.01831201 0 0 Z " fill="#000000" transform="translate(18.141586303710938,206.73257446289063)"/>
<path d="M0 0 C0.75987213 -0.0049649 1.51974426 -0.00992981 2.30264282 -0.01504517 C4.81204134 -0.02962853 7.32137664 -0.0364625 9.83081055 -0.04199219 C11.57952373 -0.04774691 13.32823691 -0.05350461 15.07695007 -0.05926514 C18.74287204 -0.06976433 22.40877215 -0.07561403 26.07470703 -0.07910156 C30.76206387 -0.08458314 35.44912978 -0.10860849 40.13639545 -0.13707352 C43.74902682 -0.15573767 47.36158864 -0.16090751 50.97426414 -0.16243744 C52.70175962 -0.16545611 54.42925409 -0.17345803 56.15670204 -0.18662262 C58.57864875 -0.20376201 60.99989152 -0.20178387 63.421875 -0.1953125 C64.12913223 -0.20452728 64.83638947 -0.21374207 65.56507874 -0.22323608 C72.63235075 -0.16436522 78.30498866 2.20275997 83.4050293 7.16113281 C86.6540548 11.97865339 87.30782214 16.50679867 86.4050293 22.16113281 C85.2999368 25.0458548 83.96748325 27.47566508 82.4050293 30.16113281 C81.7450293 30.16113281 81.0850293 30.16113281 80.4050293 30.16113281 C80.4050293 30.82113281 80.4050293 31.48113281 80.4050293 32.16113281 C75.18838226 34.74441521 70.93092413 35.59718017 65.08642578 35.54931641 C63.8850296 35.55720184 63.8850296 35.55720184 62.65936279 35.56524658 C60.03141349 35.57837083 57.40407771 35.56973648 54.77612305 35.55957031 C52.9396198 35.56159303 51.10311733 35.56450612 49.26661682 35.56826782 C45.42603881 35.57268074 41.58567072 35.5662927 37.74511719 35.55224609 C32.8301421 35.53514274 27.9156581 35.5450092 23.00070095 35.56296349 C19.21137307 35.57381895 15.42216109 35.5703471 11.63282967 35.56258011 C9.82079065 35.5605836 8.008741 35.56301802 6.1967144 35.57001877 C3.66227319 35.57766368 1.12862094 35.56598746 -1.40576172 35.54931641 C-2.14930405 35.5553891 -2.89284637 35.56146179 -3.65892029 35.56771851 C-9.03371151 35.50243858 -13.17904836 34.36009125 -17.2043457 30.69628906 C-21.14098965 25.61370424 -23.18285728 22.06373888 -23.04418945 15.61035156 C-22.01518826 10.00005809 -18.42068352 5.5521521 -13.9699707 2.16113281 C-9.30163687 0.19551856 -5.02726224 0.00787822 0 0 Z " fill="#000000" transform="translate(47.594970703125,269.8388671875)"/>
</svg>
