<svg width="113" height="113" viewBox="0 0 113 113" fill="none" xmlns="http://www.w3.org/2000/svg">
<path d="M56.5 14.1251V9.41675" stroke="white" stroke-width="5" stroke-linecap="round" stroke-linejoin="round"/>
<path d="M72.5082 81.9251L87.5748 68.7417C88.4714 67.8761 89.5296 67.1955 90.6892 66.7389C91.8488 66.2822 93.0869 66.0585 94.333 66.0803C95.579 66.1022 96.8086 66.3693 97.9514 66.8663C99.0942 67.3633 100.128 68.0806 100.994 68.9771C101.859 69.8737 102.54 70.932 102.996 72.0915C103.453 73.2511 103.677 74.4892 103.655 75.7353C103.633 76.9813 103.366 78.2109 102.869 79.3537C102.372 80.4965 101.655 81.5303 100.758 82.3959L83.8082 97.9334C80.5123 101.7 75.804 103.583 70.6248 103.583H51.7915C46.6123 103.583 41.904 101.7 38.6082 97.9334L32.4779 91.0404C32.0366 90.5434 31.495 90.1454 30.8888 89.8728C30.2826 89.6001 29.6255 89.4589 28.9608 89.4584H23.5415" stroke="white" stroke-width="5" stroke-linecap="round" stroke-linejoin="round"/>
<path d="M9.4165 65.9167H65.9165C68.414 65.9167 70.8091 66.9089 72.5751 68.6748C74.3411 70.4408 75.3332 72.836 75.3332 75.3334C75.3332 77.8309 74.3411 80.226 72.5751 81.992C70.8091 83.758 68.414 84.7501 65.9165 84.7501H56.4998" stroke="white" stroke-width="5" stroke-linecap="round" stroke-linejoin="round"/>
<path d="M18.8335 47.0833H94.1668" stroke="white" stroke-width="5" stroke-linecap="round" stroke-linejoin="round"/>
<path d="M23.5415 47.0833C23.5415 38.3422 27.0139 29.9592 33.1948 23.7783C39.3757 17.5974 47.7587 14.125 56.4998 14.125C65.2409 14.125 73.624 17.5974 79.8049 23.7783C85.9858 29.9592 89.4582 38.3422 89.4582 47.0833" stroke="white" stroke-width="5" stroke-linecap="round" stroke-linejoin="round"/>
<path d="M23.5415 65.9167V94.1667C23.5415 95.4155 23.0454 96.6131 22.1625 97.496C21.2795 98.379 20.0819 98.8751 18.8332 98.8751H9.4165" stroke="white" stroke-width="5" stroke-linecap="round" stroke-linejoin="round"/>
</svg>
