<svg width="57" height="62" viewBox="0 0 57 62" fill="none" xmlns="http://www.w3.org/2000/svg">
<path d="M45.125 27.9702H11.875C9.25165 27.9702 7.125 30.2471 7.125 33.0557V50.8549C7.125 53.6636 9.25165 55.9404 11.875 55.9404H45.125C47.7484 55.9404 49.875 53.6636 49.875 50.8549V33.0557C49.875 30.2471 47.7484 27.9702 45.125 27.9702Z" stroke="white" stroke-width="2" stroke-linecap="round" stroke-linejoin="round"/>
<path d="M16.625 27.9702V17.7992C16.625 14.4273 17.8761 11.1935 20.1031 8.80921C22.3301 6.42493 25.3506 5.08545 28.5 5.08545C31.6494 5.08545 34.6699 6.42493 36.8969 8.80921C39.1239 11.1935 40.375 14.4273 40.375 17.7992V27.9702" stroke="white" stroke-width="2" stroke-linecap="round" stroke-linejoin="round"/>
</svg>
