<svg width="113" height="113" viewBox="0 0 113 113" fill="none" xmlns="http://www.w3.org/2000/svg">
<path d="M32.9583 13.125H18.8333C16.233 13.125 14.125 15.233 14.125 17.8333V31.9583C14.125 34.5587 16.233 36.6667 18.8333 36.6667H32.9583C35.5587 36.6667 37.6667 34.5587 37.6667 31.9583V17.8333C37.6667 15.233 35.5587 13.125 32.9583 13.125Z" stroke="white" stroke-width="6" stroke-linecap="round" stroke-linejoin="round"/>
<path d="M94.1668 13.125H80.0418C77.4415 13.125 75.3335 15.233 75.3335 17.8333V31.9583C75.3335 34.5587 77.4415 36.6667 80.0418 36.6667H94.1668C96.7672 36.6667 98.8752 34.5587 98.8752 31.9583V17.8333C98.8752 15.233 96.7672 13.125 94.1668 13.125Z" stroke="white" stroke-width="6" stroke-linecap="round" stroke-linejoin="round"/>
<path d="M32.9583 74.3335H18.8333C16.233 74.3335 14.125 76.4415 14.125 79.0418V93.1668C14.125 95.7672 16.233 97.8752 18.8333 97.8752H32.9583C35.5587 97.8752 37.6667 95.7672 37.6667 93.1668V79.0418C37.6667 76.4415 35.5587 74.3335 32.9583 74.3335Z" stroke="white" stroke-width="6" stroke-linecap="round" stroke-linejoin="round"/>
<path d="M98.8752 74.3335H84.7502C82.2527 74.3335 79.8575 75.3256 78.0916 77.0916C76.3256 78.8575 75.3335 81.2527 75.3335 83.7502V97.8752" stroke="white" stroke-width="6" stroke-linecap="round" stroke-linejoin="round"/>
<path d="M98.875 97.875V97.9221" stroke="white" stroke-width="6" stroke-linecap="round" stroke-linejoin="round"/>
<path d="M56.5002 31.9585V46.0835C56.5002 48.581 55.508 50.9761 53.7421 52.7421C51.9761 54.508 49.581 55.5002 47.0835 55.5002H32.9585" stroke="white" stroke-width="6" stroke-linecap="round" stroke-linejoin="round"/>
<path d="M14.125 55.5H14.1721" stroke="white" stroke-width="6" stroke-linecap="round" stroke-linejoin="round"/>
<path d="M56.5 13.125H56.5471" stroke="white" stroke-width="6" stroke-linecap="round" stroke-linejoin="round"/>
<path d="M56.5 74.3335V74.3806" stroke="white" stroke-width="6" stroke-linecap="round" stroke-linejoin="round"/>
<path d="M75.3335 55.5H80.0418" stroke="white" stroke-width="6" stroke-linecap="round" stroke-linejoin="round"/>
<path d="M98.875 55.5V55.5471" stroke="white" stroke-width="6" stroke-linecap="round" stroke-linejoin="round"/>
<path d="M56.5 97.8748V93.1665" stroke="white" stroke-width="6" stroke-linecap="round" stroke-linejoin="round"/>
</svg>
