<svg width="113" height="113" viewBox="0 0 113 113" fill="none" xmlns="http://www.w3.org/2000/svg">
<path d="M56.4998 82.75H18.8332C16.3357 82.75 13.9405 81.7579 12.1746 79.9919C10.4086 78.226 9.4165 75.8308 9.4165 73.3333V35.6667C9.4165 33.1692 10.4086 30.774 12.1746 29.0081C13.9405 27.2421 16.3357 26.25 18.8332 26.25H94.1665C96.664 26.25 99.0591 27.2421 100.825 29.0081C102.591 30.774 103.583 33.1692 103.583 35.6667V59.2083" stroke="white" stroke-width="7" stroke-linecap="round" stroke-linejoin="round"/>
<path d="M84.75 54.5H84.7971" stroke="white" stroke-width="7" stroke-linecap="round" stroke-linejoin="round"/>
<path d="M89.4585 101.583V73.3335" stroke="white" stroke-width="7" stroke-linecap="round" stroke-linejoin="round"/>
<path d="M103.583 87.4585L89.4585 73.3335L75.3335 87.4585" stroke="white" stroke-width="7" stroke-linecap="round" stroke-linejoin="round"/>
<path d="M28.25 54.5H28.2971" stroke="white" stroke-width="7" stroke-linecap="round" stroke-linejoin="round"/>
<path d="M56.5002 63.9168C61.7008 63.9168 65.9168 59.7008 65.9168 54.5002C65.9168 49.2995 61.7008 45.0835 56.5002 45.0835C51.2995 45.0835 47.0835 49.2995 47.0835 54.5002C47.0835 59.7008 51.2995 63.9168 56.5002 63.9168Z" stroke="white" stroke-width="7" stroke-linecap="round" stroke-linejoin="round"/>
</svg>
