<svg width="113" height="113" viewBox="0 0 113 113" fill="none" xmlns="http://www.w3.org/2000/svg">
<path d="M80.0417 53.5V72.3333C80.0417 73.5821 79.5456 74.7796 78.6626 75.6626C77.7796 76.5456 76.5821 77.0417 75.3333 77.0417H56.5" stroke="white" stroke-width="8" stroke-linecap="round" stroke-linejoin="round"/>
<path d="M80.0415 11.125H89.4582C91.9556 11.125 94.3508 12.1171 96.1168 13.8831C97.8827 15.649 98.8748 18.0442 98.8748 20.5417V29.9583" stroke="white" stroke-width="8" stroke-linecap="round" stroke-linejoin="round"/>
<path d="M80.0415 34.6667V29.9584" stroke="white" stroke-width="8" stroke-linecap="round" stroke-linejoin="round"/>
<path d="M98.8748 77.0416V86.4583C98.8748 88.9557 97.8827 91.3509 96.1168 93.1169C94.3508 94.8828 91.9556 95.875 89.4582 95.875H80.0415" stroke="white" stroke-width="8" stroke-linecap="round" stroke-linejoin="round"/>
<path d="M14.125 29.9583V20.5417C14.125 18.0442 15.1171 15.649 16.8831 13.8831C18.649 12.1171 21.0442 11.125 23.5417 11.125H32.9583" stroke="white" stroke-width="8" stroke-linecap="round" stroke-linejoin="round"/>
<path d="M32.9584 77.0416H33.0055" stroke="white" stroke-width="8" stroke-linecap="round" stroke-linejoin="round"/>
<path d="M32.9583 95.875H23.5417C21.0442 95.875 18.649 94.8828 16.8831 93.1169C15.1171 91.3509 14.125 88.9557 14.125 86.4583V77.0416" stroke="white" stroke-width="8" stroke-linecap="round" stroke-linejoin="round"/>
<path d="M51.7917 29.9584H37.6667C35.0664 29.9584 32.9584 32.0664 32.9584 34.6667V48.7917C32.9584 51.392 35.0664 53.5 37.6667 53.5H51.7917C54.392 53.5 56.5 51.392 56.5 48.7917V34.6667C56.5 32.0664 54.392 29.9584 51.7917 29.9584Z" stroke="white" stroke-width="8" stroke-linecap="round" stroke-linejoin="round"/>
</svg>
