<svg width="113" height="113" viewBox="0 0 113 113" fill="none" xmlns="http://www.w3.org/2000/svg">
<path d="M75.5735 59.4003C75.8846 58.4461 76.4924 57.6163 77.3084 57.0319C78.1243 56.4475 79.1056 56.1391 80.1092 56.1517C81.1127 56.1643 82.086 56.4973 82.887 57.102C83.6879 57.7067 84.2747 58.5516 84.5617 59.5133L88.0318 66.3498C88.3695 67.0144 88.8601 67.5893 89.4634 68.0273C90.0667 68.4652 90.7653 68.7536 91.5018 68.8688L99.1952 70.0741C100.186 70.078 101.15 70.3942 101.951 70.9779C102.751 71.5615 103.347 72.3828 103.654 73.3248C103.961 74.2668 103.962 75.2815 103.659 76.2246C103.355 77.1677 102.762 77.991 101.964 78.5774L96.4455 84.0767C95.9172 84.6027 95.5214 85.2466 95.2905 85.9555C95.0597 86.6644 95.0005 87.4179 95.1178 88.1541L96.3373 95.7487C96.6727 96.7005 96.6935 97.735 96.3964 98.6996C96.0993 99.6641 95.5002 100.508 94.6873 101.106C93.8744 101.704 92.8908 102.025 91.8815 102.022C90.8723 102.019 89.8908 101.691 89.0817 101.088L82.184 97.5567C81.5195 97.2162 80.7836 97.0387 80.037 97.0387C79.2904 97.0387 78.5545 97.2162 77.89 97.5567L70.9923 101.088C70.1833 101.686 69.2039 102.01 68.1977 102.011C67.1914 102.012 66.2113 101.691 65.401 101.094C64.5906 100.498 63.9927 99.6572 63.6949 98.696C63.3971 97.7349 63.4151 96.7036 63.7462 95.7534L64.9609 88.1588C65.0782 87.4226 65.019 86.6691 64.7882 85.9602C64.5574 85.2513 64.1615 84.6074 63.6332 84.0814L58.1904 78.6527C57.3648 78.0807 56.7437 77.2598 56.4179 76.3098C56.0921 75.3597 56.0787 74.3304 56.3795 73.3722C56.6803 72.4139 57.2797 71.577 58.09 70.9837C58.9003 70.3903 59.8792 70.0716 60.8835 70.0741L68.5722 68.8688C69.3087 68.7536 70.0074 68.4652 70.6106 68.0273C71.2139 67.5893 71.7046 67.0144 72.0423 66.3498L75.5735 59.4003Z" stroke="white" stroke-width="7" stroke-linecap="round" stroke-linejoin="round"/>
<path d="M37.6667 70.625H32.9583C27.9634 70.625 23.1731 72.6092 19.6412 76.1412C16.1092 79.6731 14.125 84.4634 14.125 89.4583V98.875" stroke="white" stroke-width="7" stroke-linecap="round" stroke-linejoin="round"/>
<path d="M47.0833 51.7917C57.4847 51.7917 65.9167 43.3597 65.9167 32.9583C65.9167 22.557 57.4847 14.125 47.0833 14.125C36.682 14.125 28.25 22.557 28.25 32.9583C28.25 43.3597 36.682 51.7917 47.0833 51.7917Z" stroke="white" stroke-width="7" stroke-linecap="round" stroke-linejoin="round"/>
</svg>
