<svg width="59" height="67" viewBox="0 0 59 67" fill="none" xmlns="http://www.w3.org/2000/svg">
<g filter="url(#filter0_d_916_344)">
<path d="M10.3831 38.5196C9.93367 38.5212 9.49302 38.3863 9.11236 38.1305C8.7317 37.8747 8.42665 37.5085 8.23266 37.0744C8.03866 36.6404 7.96367 36.1563 8.01641 35.6785C8.06915 35.2006 8.24745 34.7486 8.5306 34.3749L32.0431 8.43889C32.2195 8.22093 32.4598 8.07364 32.7247 8.0212C32.9895 7.96876 33.2632 8.01428 33.5007 8.1503C33.7382 8.28631 33.9255 8.50474 34.0318 8.76972C34.1381 9.0347 34.157 9.3305 34.0856 9.60855L29.5256 24.9159C29.3911 25.3012 29.346 25.7156 29.394 26.1237C29.442 26.5318 29.5818 26.9213 29.8013 27.2588C30.0208 27.5964 30.3136 27.8719 30.6544 28.0617C30.9952 28.2515 31.3739 28.3499 31.7581 28.3486H48.3831C48.8325 28.347 49.2732 28.4819 49.6538 28.7377C50.0345 28.9935 50.3395 29.3597 50.5335 29.7937C50.7275 30.2278 50.8025 30.7119 50.7498 31.1897C50.697 31.6676 50.5187 32.1196 50.2356 32.4933L26.7231 58.4293C26.5467 58.6472 26.3064 58.7945 26.0415 58.847C25.7767 58.8994 25.503 58.8539 25.2655 58.7179C25.028 58.5819 24.8407 58.3634 24.7344 58.0985C24.6281 57.8335 24.6092 57.5377 24.6806 57.2596L29.2406 41.9523C29.3751 41.567 29.4202 41.1525 29.3722 40.7445C29.3242 40.3364 29.1844 39.9469 28.9649 39.6093C28.7454 39.2718 28.4526 38.9963 28.1118 38.8065C27.771 38.6167 27.3923 38.5182 27.0081 38.5196H10.3831Z" stroke="white" stroke-width="2" stroke-linecap="round" stroke-linejoin="round" shape-rendering="crispEdges"/>
</g>
<defs>
<filter id="filter0_d_916_344" x="0" y="0" width="58.7661" height="66.8682" filterUnits="userSpaceOnUse" color-interpolation-filters="sRGB">
<feFlood flood-opacity="0" result="BackgroundImageFix"/>
<feColorMatrix in="SourceAlpha" type="matrix" values="0 0 0 0 0 0 0 0 0 0 0 0 0 0 0 0 0 0 127 0" result="hardAlpha"/>
<feOffset/>
<feGaussianBlur stdDeviation="3.5"/>
<feComposite in2="hardAlpha" operator="out"/>
<feColorMatrix type="matrix" values="0 0 0 0 0 0 0 0 0 0 0 0 0 0 0 0 0 0 0.25 0"/>
<feBlend mode="normal" in2="BackgroundImageFix" result="effect1_dropShadow_916_344"/>
<feBlend mode="normal" in="SourceGraphic" in2="effect1_dropShadow_916_344" result="shape"/>
</filter>
</defs>
</svg>
