<svg width="335" height="335" viewBox="0 0 335 335" fill="none" xmlns="http://www.w3.org/2000/svg">
<path d="M52.101 334.668C23.371 334.668 0 311.293 0 282.566V52.105C0 23.375 23.371 0 52.101 0H282.562C311.293 0 334.668 23.375 334.668 52.105V282.566C334.668 311.293 311.293 334.668 282.562 334.668H52.101Z" fill="url(#paint0_linear_1153_228)"/>
<g filter="url(#filter0_d_1153_228)">
<path d="M174.587 209.953C173.911 210.371 173.227 210.711 172.54 210.973C171.852 211.23 170.903 211.473 169.7 211.695L167.298 212.14C165.044 212.535 163.426 213.015 162.442 213.582C160.778 214.547 159.95 216.043 159.95 218.066C159.95 219.871 160.454 221.172 161.473 221.976C162.485 222.781 163.723 223.18 165.18 223.18C167.485 223.18 169.61 222.515 171.555 221.18C173.501 219.844 174.509 217.414 174.587 213.879V209.953ZM168.13 205.023C170.094 204.777 171.497 204.469 172.348 204.097C173.864 203.453 174.622 202.453 174.622 201.094C174.622 199.441 174.04 198.297 172.876 197.668C171.712 197.039 170.005 196.723 167.751 196.723C165.219 196.723 163.43 197.34 162.38 198.574C161.626 199.488 161.126 200.726 160.876 202.281H150.684C150.907 198.75 151.903 195.847 153.661 193.574C156.466 190.015 161.278 188.238 168.102 188.238C172.544 188.238 176.489 189.113 179.938 190.867C183.387 192.621 185.11 195.933 185.11 200.801V219.328C185.11 220.613 185.133 222.168 185.184 223.996C185.259 225.379 185.469 226.32 185.813 226.812C186.161 227.305 186.676 227.715 187.372 228.035V229.594H175.883C175.563 228.777 175.341 228.012 175.216 227.293C175.091 226.578 174.993 225.762 174.919 224.847C173.454 226.43 171.762 227.777 169.848 228.887C167.563 230.199 164.977 230.851 162.098 230.851C158.423 230.851 155.383 229.808 152.985 227.719C150.587 225.633 149.387 222.676 149.387 218.844C149.387 213.879 151.317 210.285 155.173 208.062C157.29 206.851 160.399 205.988 164.509 205.469L168.13 205.023Z" fill="white"/>
</g>
<g filter="url(#filter1_d_1153_228)">
<path d="M220.199 201.133C218.761 198.734 216.433 197.539 213.215 197.539C209.347 197.539 206.687 199.355 205.242 202.984C204.492 204.91 204.117 207.359 204.117 210.324C204.117 215.015 205.379 218.312 207.894 220.215C209.394 221.328 211.164 221.883 213.215 221.883C216.183 221.883 218.449 220.746 220.011 218.476C221.57 216.203 222.351 213.176 222.351 209.394C222.351 206.285 221.632 203.531 220.199 201.133ZM228.304 193.535C231.597 197.019 233.246 202.133 233.246 208.879C233.246 215.992 231.636 221.414 228.414 225.144C225.195 228.875 221.047 230.742 215.976 230.742C212.742 230.742 210.062 229.937 207.922 228.332C206.754 227.441 205.605 226.144 204.488 224.441V245.488H194.039V189.199H204.156V195.168C205.297 193.414 206.519 192.031 207.812 191.015C210.172 189.211 212.98 188.312 216.238 188.312C220.988 188.312 225.008 190.051 228.304 193.535Z" fill="white"/>
</g>
<g filter="url(#filter2_d_1153_228)">
<path d="M266.554 201.133C265.117 198.734 262.789 197.539 259.574 197.539C255.703 197.539 253.047 199.355 251.597 202.984C250.851 204.91 250.476 207.359 250.476 210.324C250.476 215.015 251.734 218.312 254.254 220.215C255.75 221.328 257.523 221.883 259.57 221.883C262.539 221.883 264.808 220.746 266.367 218.476C267.925 216.203 268.707 213.176 268.707 209.394C268.707 206.285 267.992 203.531 266.554 201.133ZM274.66 193.535C277.957 197.019 279.601 202.133 279.601 208.879C279.601 215.992 277.992 221.414 274.769 225.144C271.55 228.875 267.406 230.742 262.332 230.742C259.101 230.742 256.418 229.937 254.277 228.332C253.109 227.441 251.965 226.144 250.847 224.441V245.488H240.398V189.199H250.511V195.168C251.656 193.414 252.875 192.031 254.168 191.015C256.527 189.211 259.34 188.312 262.597 188.312C267.343 188.312 271.367 190.051 274.66 193.535Z" fill="white"/>
</g>
<g filter="url(#filter3_d_1153_228)">
<path d="M151.059 79.1682H176.079V173.558H151.059V79.1682ZM176.079 67.9102H151.059V45.1372H176.079V67.9102Z" fill="white"/>
</g>
<g filter="url(#filter4_d_1153_228)">
<path d="M251.175 72.3473C247.906 66.8793 242.593 64.1443 235.25 64.1443C226.429 64.1443 220.355 68.2893 217.058 76.5743C215.355 80.9733 214.496 86.5553 214.496 93.3163C214.496 104.027 217.371 111.551 223.117 115.894C226.527 118.43 230.574 119.699 235.25 119.699C242.031 119.699 247.187 117.105 250.754 111.918C254.32 106.734 256.093 99.8283 256.093 91.2033C256.093 84.1013 254.461 77.8163 251.175 72.3473ZM269.679 55.0153C277.191 62.9613 280.953 74.6293 280.953 90.0193C280.953 106.254 277.277 118.629 269.933 127.14C262.593 135.652 253.121 139.906 241.55 139.906C234.183 139.906 228.05 138.074 223.175 134.41C220.5 132.383 217.89 129.422 215.34 125.531V173.558H191.496V45.1213H214.578V58.7343C217.187 54.7303 219.961 51.5743 222.922 49.2653C228.304 45.1483 234.718 43.0903 242.144 43.0903C252.98 43.0903 262.156 47.0663 269.679 55.0153Z" fill="white"/>
</g>
<g filter="url(#filter5_d_1153_228)">
<path d="M53.7109 117.746V88.6683H75.4799V45.1333H115.871V88.6683H141.218V117.746H115.871V200.238C115.871 206.633 116.679 210.621 118.304 212.195C119.929 213.769 124.89 214.558 133.199 214.558C134.437 214.558 135.754 214.535 137.14 214.488C138.519 214.437 139.882 214.367 141.218 214.269V244.777L121.886 245.492C102.597 246.164 89.4219 242.824 82.3549 235.469C77.7729 230.789 75.4799 223.582 75.4799 213.84V117.746H53.7109Z" fill="white"/>
</g>
<g filter="url(#filter6_d_1153_228)">
<path d="M56.2181 260.871H59.3201V265.965H62.2301V268.469H59.3201V280.375C59.3201 281.012 59.5351 281.437 59.9651 281.652C60.2031 281.777 60.6011 281.84 61.1561 281.84C61.3041 281.84 61.4651 281.836 61.6361 281.832C61.8041 281.828 62.0041 281.812 62.2301 281.789V284.207C61.8791 284.312 61.5111 284.383 61.1321 284.43C60.7501 284.473 60.3401 284.496 59.8981 284.496C58.4651 284.496 57.4961 284.133 56.9841 283.398C56.4721 282.668 56.2181 281.715 56.2181 280.547V268.469H53.7461V265.965H56.2181V260.871Z" fill="white"/>
</g>
<g filter="url(#filter7_d_1153_228)">
<path d="M65.2969 259.097H68.3629V268.433C69.0899 267.512 69.7419 266.867 70.3239 266.492C71.3079 265.844 72.5429 265.519 74.0189 265.519C76.6639 265.519 78.4569 266.445 79.4019 268.297C79.9139 269.308 80.1679 270.711 80.1679 272.504V284.207H77.0149V272.711C77.0149 271.371 76.8429 270.387 76.5039 269.762C75.9489 268.765 74.9019 268.262 73.3709 268.262C72.0969 268.262 70.9449 268.699 69.9139 269.574C68.8789 270.449 68.3629 272.101 68.3629 274.531V284.207H65.2969V259.097Z" fill="white"/>
</g>
<g filter="url(#filter8_d_1153_228)">
<path d="M97.1838 273.629C97.0588 272.301 96.7698 271.238 96.3168 270.445C95.4768 268.969 94.0748 268.23 92.1098 268.23C90.6998 268.23 89.5198 268.738 88.5668 269.754C87.6138 270.769 87.1058 272.062 87.0508 273.629H97.1838ZM96.0588 266.469C97.2778 267.074 98.2038 267.859 98.8368 268.828C99.4498 269.746 99.8598 270.82 100.063 272.047C100.247 272.887 100.337 274.226 100.337 276.066H86.9658C87.0198 277.918 87.4578 279.402 88.2778 280.519C89.0938 281.637 90.3598 282.199 92.0748 282.199C93.6758 282.199 94.9538 281.668 95.9068 280.613C96.4538 280 96.8408 279.293 97.0668 278.484H100.083C100.001 279.156 99.7388 279.902 99.2898 280.723C98.8408 281.547 98.3368 282.219 97.7818 282.742C96.8518 283.652 95.6998 284.265 94.3248 284.582C93.5868 284.765 92.7508 284.855 91.8208 284.855C89.5478 284.855 87.6218 284.031 86.0438 282.375C84.4658 280.723 83.6758 278.41 83.6758 275.433C83.6758 272.504 84.4728 270.125 86.0628 268.297C87.6528 266.469 89.7308 265.555 92.2978 265.555C93.5908 265.555 94.8438 265.859 96.0588 266.469Z" fill="white"/>
</g>
<g filter="url(#filter9_d_1153_228)">
<path d="M114.406 260.871H117.508V265.965H120.419V268.469H117.508V280.375C117.508 281.012 117.722 281.437 118.152 281.652C118.394 281.777 118.789 281.84 119.347 281.84C119.496 281.84 119.652 281.836 119.824 281.832C119.996 281.828 120.192 281.812 120.419 281.789V284.207C120.067 284.312 119.703 284.383 119.32 284.43C118.941 284.473 118.528 284.496 118.087 284.496C116.657 284.496 115.683 284.133 115.175 283.398C114.66 282.668 114.406 281.715 114.406 280.547V268.469H111.938V265.965H114.406V260.871Z" fill="white"/>
</g>
<g filter="url(#filter10_d_1153_228)">
<path d="M123.484 266.051H126.601V284.207H123.484V266.051ZM123.484 259.183H126.601V262.66H123.484V259.183Z" fill="white"/>
</g>
<g filter="url(#filter11_d_1153_228)">
<path d="M142.504 280.351C143.453 279.152 143.925 277.359 143.925 274.976C143.925 273.523 143.718 272.273 143.297 271.226C142.5 269.219 141.047 268.215 138.937 268.215C136.812 268.215 135.359 269.273 134.574 271.398C134.156 272.535 133.945 273.976 133.945 275.726C133.945 277.133 134.156 278.332 134.574 279.32C135.371 281.203 136.824 282.148 138.937 282.148C140.367 282.148 141.558 281.547 142.504 280.351ZM131 266.051H133.98V268.469C134.593 267.64 135.261 266.996 135.988 266.543C137.023 265.859 138.238 265.519 139.636 265.519C141.699 265.519 143.457 266.312 144.898 267.898C146.34 269.48 147.062 271.746 147.062 274.687C147.062 278.66 146.023 281.5 143.945 283.203C142.625 284.281 141.093 284.82 139.343 284.82C137.968 284.82 136.816 284.519 135.886 283.918C135.34 283.578 134.734 282.992 134.062 282.164V291.48H131V266.051Z" fill="white"/>
</g>
<g filter="url(#filter12_d_1153_228)">
<path d="M161.906 280.351C162.855 279.152 163.328 277.359 163.328 274.976C163.328 273.523 163.121 272.273 162.699 271.226C161.902 269.219 160.453 268.215 158.34 268.215C156.215 268.215 154.761 269.273 153.976 271.398C153.558 272.535 153.347 273.976 153.347 275.726C153.347 277.133 153.558 278.332 153.976 279.32C154.773 281.203 156.226 282.148 158.34 282.148C159.769 282.148 160.961 281.547 161.906 280.351ZM150.402 266.051H153.382V268.469C153.996 267.64 154.664 266.996 155.39 266.543C156.425 265.859 157.64 265.519 159.039 265.519C161.105 265.519 162.859 266.312 164.3 267.898C165.742 269.48 166.465 271.746 166.465 274.687C166.465 278.66 165.425 281.5 163.347 283.203C162.031 284.281 160.496 284.82 158.746 284.82C157.375 284.82 156.222 284.519 155.289 283.918C154.742 283.578 154.136 282.992 153.465 282.164V291.48H150.402V266.051Z" fill="white"/>
</g>
<g filter="url(#filter13_d_1153_228)">
<path d="M170.043 266.051H173.16V284.207H170.043V266.051ZM170.043 259.183H173.16V262.66H170.043V259.183Z" fill="white"/>
</g>
<g filter="url(#filter14_d_1153_228)">
<path d="M177.793 265.965H180.703V268.555C181.57 267.484 182.48 266.719 183.449 266.254C184.414 265.789 185.484 265.555 186.668 265.555C189.254 265.555 191.004 266.457 191.914 268.262C192.414 269.25 192.664 270.664 192.664 272.504V284.207H189.547V272.711C189.547 271.597 189.379 270.699 189.05 270.019C188.504 268.883 187.519 268.316 186.086 268.316C185.359 268.316 184.765 268.39 184.3 268.535C183.457 268.785 182.718 269.285 182.086 270.035C181.574 270.637 181.242 271.258 181.086 271.902C180.933 272.543 180.859 273.457 180.859 274.652V284.207H177.793V265.965Z" fill="white"/>
</g>
<g filter="url(#filter15_d_1153_228)">
<path d="M207.754 269.984C206.824 268.894 205.636 268.347 204.195 268.347C202.035 268.347 200.558 269.359 199.765 271.383C199.343 272.461 199.136 273.875 199.136 275.621C199.136 277.68 199.55 279.242 200.386 280.316C201.222 281.387 202.343 281.926 203.754 281.926C205.957 281.926 207.504 280.933 208.402 278.945C208.902 277.82 209.152 276.508 209.152 275.012C209.152 272.75 208.687 271.074 207.754 269.984ZM207.379 266.699C207.961 267.094 208.55 267.672 209.152 268.433V266.133H211.98V282.726C211.98 285.043 211.64 286.871 210.957 288.211C209.687 290.687 207.285 291.922 203.754 291.922C201.785 291.922 200.136 291.484 198.797 290.605C197.457 289.723 196.707 288.347 196.547 286.473H199.664C199.812 287.289 200.105 287.922 200.55 288.363C201.242 289.043 202.332 289.387 203.82 289.387C206.172 289.387 207.711 288.558 208.437 286.898C208.867 285.922 209.066 284.18 209.031 281.672C208.418 282.601 207.679 283.293 206.816 283.746C205.957 284.203 204.812 284.43 203.394 284.43C201.418 284.43 199.687 283.73 198.207 282.324C196.726 280.922 195.984 278.605 195.984 275.367C195.984 272.312 196.73 269.926 198.226 268.211C199.718 266.496 201.519 265.64 203.632 265.64C205.062 265.64 206.312 265.992 207.379 266.699Z" fill="white"/>
</g>
<g filter="url(#filter16_d_1153_228)">
<path d="M229.609 281.449C230.258 281.961 231.023 282.215 231.91 282.215C232.988 282.215 234.035 281.965 235.047 281.465C236.75 280.637 237.602 279.281 237.602 277.394V274.926C237.227 275.164 236.742 275.363 236.152 275.519C235.558 275.68 234.98 275.793 234.414 275.859L232.559 276.097C231.446 276.246 230.61 276.48 230.055 276.797C229.11 277.332 228.641 278.183 228.641 279.351C228.641 280.238 228.965 280.937 229.609 281.449ZM236.066 273.152C236.769 273.062 237.242 272.765 237.48 272.265C237.617 271.992 237.688 271.601 237.688 271.09C237.688 270.047 237.312 269.289 236.566 268.816C235.824 268.347 234.761 268.109 233.375 268.109C231.773 268.109 230.637 268.543 229.969 269.402C229.594 269.883 229.347 270.594 229.234 271.535H226.375C226.429 269.285 227.161 267.723 228.562 266.844C229.965 265.961 231.593 265.519 233.445 265.519C235.59 265.519 237.332 265.93 238.672 266.746C240 267.566 240.664 268.84 240.664 270.562V281.074C240.664 281.39 240.73 281.648 240.863 281.84C240.992 282.035 241.269 282.129 241.688 282.129C241.824 282.129 241.976 282.121 242.148 282.101C242.32 282.086 242.5 282.062 242.691 282.027V284.293C242.215 284.43 241.856 284.515 241.602 284.551C241.352 284.582 241.011 284.597 240.582 284.597C239.523 284.597 238.758 284.226 238.281 283.476C238.031 283.078 237.855 282.515 237.754 281.789C237.129 282.605 236.23 283.316 235.062 283.918C233.89 284.519 232.601 284.82 231.195 284.82C229.504 284.82 228.121 284.308 227.047 283.277C225.972 282.254 225.438 280.965 225.438 279.422C225.438 277.73 225.966 276.418 227.02 275.488C228.079 274.555 229.466 273.98 231.176 273.765L236.066 273.152Z" fill="white"/>
</g>
<g filter="url(#filter17_d_1153_228)">
<path d="M256.957 280.351C257.906 279.152 258.379 277.359 258.379 274.976C258.379 273.523 258.172 272.273 257.75 271.226C256.957 269.219 255.5 268.215 253.39 268.215C251.265 268.215 249.812 269.273 249.031 271.398C248.609 272.535 248.398 273.976 248.398 275.726C248.398 277.133 248.609 278.332 249.031 279.32C249.824 281.203 251.277 282.148 253.39 282.148C254.82 282.148 256.011 281.547 256.957 280.351ZM245.453 266.051H248.433V268.469C249.047 267.64 249.715 266.996 250.445 266.543C251.476 265.859 252.691 265.519 254.09 265.519C256.156 265.519 257.91 266.312 259.351 267.898C260.793 269.48 261.515 271.746 261.515 274.687C261.515 278.66 260.476 281.5 258.398 283.203C257.082 284.281 255.547 284.82 253.8 284.82C252.425 284.82 251.269 284.519 250.34 283.918C249.797 283.578 249.187 282.992 248.519 282.164V291.48H245.453V266.051Z" fill="white"/>
</g>
<g filter="url(#filter18_d_1153_228)">
<path d="M276.359 280.351C277.308 279.152 277.781 277.359 277.781 274.976C277.781 273.523 277.574 272.273 277.152 271.226C276.359 269.219 274.902 268.215 272.793 268.215C270.668 268.215 269.215 269.273 268.433 271.398C268.011 272.535 267.8 273.976 267.8 275.726C267.8 277.133 268.011 278.332 268.433 279.32C269.226 281.203 270.679 282.148 272.793 282.148C274.222 282.148 275.414 281.547 276.359 280.351ZM264.855 266.051H267.836V268.469C268.449 267.64 269.117 266.996 269.847 266.543C270.879 265.859 272.093 265.519 273.492 265.519C275.558 265.519 277.312 266.312 278.754 267.898C280.195 269.48 280.918 271.746 280.918 274.687C280.918 278.66 279.879 281.5 277.8 283.203C276.484 284.281 274.949 284.82 273.203 284.82C271.828 284.82 270.672 284.519 269.742 283.918C269.199 283.578 268.59 282.992 267.918 282.164V291.48H264.855V266.051Z" fill="white"/>
</g>
<defs>
<filter id="filter0_d_1153_228" x="141.387" y="180.238" width="53.9849" height="58.6128" filterUnits="userSpaceOnUse" color-interpolation-filters="sRGB">
<feFlood flood-opacity="0" result="BackgroundImageFix"/>
<feColorMatrix in="SourceAlpha" type="matrix" values="0 0 0 0 0 0 0 0 0 0 0 0 0 0 0 0 0 0 127 0" result="hardAlpha"/>
<feOffset/>
<feGaussianBlur stdDeviation="4"/>
<feComposite in2="hardAlpha" operator="out"/>
<feColorMatrix type="matrix" values="0 0 0 0 0 0 0 0 0 0 0 0 0 0 0 0 0 0 0.25 0"/>
<feBlend mode="normal" in2="BackgroundImageFix" result="effect1_dropShadow_1153_228"/>
<feBlend mode="normal" in="SourceGraphic" in2="effect1_dropShadow_1153_228" result="shape"/>
</filter>
<filter id="filter1_d_1153_228" x="186.039" y="180.312" width="55.207" height="73.1758" filterUnits="userSpaceOnUse" color-interpolation-filters="sRGB">
<feFlood flood-opacity="0" result="BackgroundImageFix"/>
<feColorMatrix in="SourceAlpha" type="matrix" values="0 0 0 0 0 0 0 0 0 0 0 0 0 0 0 0 0 0 127 0" result="hardAlpha"/>
<feOffset/>
<feGaussianBlur stdDeviation="4"/>
<feComposite in2="hardAlpha" operator="out"/>
<feColorMatrix type="matrix" values="0 0 0 0 0 0 0 0 0 0 0 0 0 0 0 0 0 0 0.25 0"/>
<feBlend mode="normal" in2="BackgroundImageFix" result="effect1_dropShadow_1153_228"/>
<feBlend mode="normal" in="SourceGraphic" in2="effect1_dropShadow_1153_228" result="shape"/>
</filter>
<filter id="filter2_d_1153_228" x="232.398" y="180.312" width="55.2031" height="73.1758" filterUnits="userSpaceOnUse" color-interpolation-filters="sRGB">
<feFlood flood-opacity="0" result="BackgroundImageFix"/>
<feColorMatrix in="SourceAlpha" type="matrix" values="0 0 0 0 0 0 0 0 0 0 0 0 0 0 0 0 0 0 127 0" result="hardAlpha"/>
<feOffset/>
<feGaussianBlur stdDeviation="4"/>
<feComposite in2="hardAlpha" operator="out"/>
<feColorMatrix type="matrix" values="0 0 0 0 0 0 0 0 0 0 0 0 0 0 0 0 0 0 0.25 0"/>
<feBlend mode="normal" in2="BackgroundImageFix" result="effect1_dropShadow_1153_228"/>
<feBlend mode="normal" in="SourceGraphic" in2="effect1_dropShadow_1153_228" result="shape"/>
</filter>
<filter id="filter3_d_1153_228" x="143.059" y="37.1372" width="41.02" height="144.421" filterUnits="userSpaceOnUse" color-interpolation-filters="sRGB">
<feFlood flood-opacity="0" result="BackgroundImageFix"/>
<feColorMatrix in="SourceAlpha" type="matrix" values="0 0 0 0 0 0 0 0 0 0 0 0 0 0 0 0 0 0 127 0" result="hardAlpha"/>
<feOffset/>
<feGaussianBlur stdDeviation="4"/>
<feComposite in2="hardAlpha" operator="out"/>
<feColorMatrix type="matrix" values="0 0 0 0 0 0 0 0 0 0 0 0 0 0 0 0 0 0 0.25 0"/>
<feBlend mode="normal" in2="BackgroundImageFix" result="effect1_dropShadow_1153_228"/>
<feBlend mode="normal" in="SourceGraphic" in2="effect1_dropShadow_1153_228" result="shape"/>
</filter>
<filter id="filter4_d_1153_228" x="183.496" y="35.0903" width="105.457" height="146.468" filterUnits="userSpaceOnUse" color-interpolation-filters="sRGB">
<feFlood flood-opacity="0" result="BackgroundImageFix"/>
<feColorMatrix in="SourceAlpha" type="matrix" values="0 0 0 0 0 0 0 0 0 0 0 0 0 0 0 0 0 0 127 0" result="hardAlpha"/>
<feOffset/>
<feGaussianBlur stdDeviation="4"/>
<feComposite in2="hardAlpha" operator="out"/>
<feColorMatrix type="matrix" values="0 0 0 0 0 0 0 0 0 0 0 0 0 0 0 0 0 0 0.25 0"/>
<feBlend mode="normal" in2="BackgroundImageFix" result="effect1_dropShadow_1153_228"/>
<feBlend mode="normal" in="SourceGraphic" in2="effect1_dropShadow_1153_228" result="shape"/>
</filter>
<filter id="filter5_d_1153_228" x="45.7109" y="37.1333" width="103.507" height="216.443" filterUnits="userSpaceOnUse" color-interpolation-filters="sRGB">
<feFlood flood-opacity="0" result="BackgroundImageFix"/>
<feColorMatrix in="SourceAlpha" type="matrix" values="0 0 0 0 0 0 0 0 0 0 0 0 0 0 0 0 0 0 127 0" result="hardAlpha"/>
<feOffset/>
<feGaussianBlur stdDeviation="4"/>
<feComposite in2="hardAlpha" operator="out"/>
<feColorMatrix type="matrix" values="0 0 0 0 0 0 0 0 0 0 0 0 0 0 0 0 0 0 0.25 0"/>
<feBlend mode="normal" in2="BackgroundImageFix" result="effect1_dropShadow_1153_228"/>
<feBlend mode="normal" in="SourceGraphic" in2="effect1_dropShadow_1153_228" result="shape"/>
</filter>
<filter id="filter6_d_1153_228" x="45.7461" y="252.871" width="24.4839" height="39.625" filterUnits="userSpaceOnUse" color-interpolation-filters="sRGB">
<feFlood flood-opacity="0" result="BackgroundImageFix"/>
<feColorMatrix in="SourceAlpha" type="matrix" values="0 0 0 0 0 0 0 0 0 0 0 0 0 0 0 0 0 0 127 0" result="hardAlpha"/>
<feOffset/>
<feGaussianBlur stdDeviation="4"/>
<feComposite in2="hardAlpha" operator="out"/>
<feColorMatrix type="matrix" values="0 0 0 0 0 0 0 0 0 0 0 0 0 0 0 0 0 0 0.25 0"/>
<feBlend mode="normal" in2="BackgroundImageFix" result="effect1_dropShadow_1153_228"/>
<feBlend mode="normal" in="SourceGraphic" in2="effect1_dropShadow_1153_228" result="shape"/>
</filter>
<filter id="filter7_d_1153_228" x="57.2969" y="251.097" width="30.8711" height="41.1099" filterUnits="userSpaceOnUse" color-interpolation-filters="sRGB">
<feFlood flood-opacity="0" result="BackgroundImageFix"/>
<feColorMatrix in="SourceAlpha" type="matrix" values="0 0 0 0 0 0 0 0 0 0 0 0 0 0 0 0 0 0 127 0" result="hardAlpha"/>
<feOffset/>
<feGaussianBlur stdDeviation="4"/>
<feComposite in2="hardAlpha" operator="out"/>
<feColorMatrix type="matrix" values="0 0 0 0 0 0 0 0 0 0 0 0 0 0 0 0 0 0 0.25 0"/>
<feBlend mode="normal" in2="BackgroundImageFix" result="effect1_dropShadow_1153_228"/>
<feBlend mode="normal" in="SourceGraphic" in2="effect1_dropShadow_1153_228" result="shape"/>
</filter>
<filter id="filter8_d_1153_228" x="75.6758" y="257.555" width="32.6611" height="35.2998" filterUnits="userSpaceOnUse" color-interpolation-filters="sRGB">
<feFlood flood-opacity="0" result="BackgroundImageFix"/>
<feColorMatrix in="SourceAlpha" type="matrix" values="0 0 0 0 0 0 0 0 0 0 0 0 0 0 0 0 0 0 127 0" result="hardAlpha"/>
<feOffset/>
<feGaussianBlur stdDeviation="4"/>
<feComposite in2="hardAlpha" operator="out"/>
<feColorMatrix type="matrix" values="0 0 0 0 0 0 0 0 0 0 0 0 0 0 0 0 0 0 0.25 0"/>
<feBlend mode="normal" in2="BackgroundImageFix" result="effect1_dropShadow_1153_228"/>
<feBlend mode="normal" in="SourceGraphic" in2="effect1_dropShadow_1153_228" result="shape"/>
</filter>
<filter id="filter9_d_1153_228" x="103.938" y="252.871" width="24.481" height="39.625" filterUnits="userSpaceOnUse" color-interpolation-filters="sRGB">
<feFlood flood-opacity="0" result="BackgroundImageFix"/>
<feColorMatrix in="SourceAlpha" type="matrix" values="0 0 0 0 0 0 0 0 0 0 0 0 0 0 0 0 0 0 127 0" result="hardAlpha"/>
<feOffset/>
<feGaussianBlur stdDeviation="4"/>
<feComposite in2="hardAlpha" operator="out"/>
<feColorMatrix type="matrix" values="0 0 0 0 0 0 0 0 0 0 0 0 0 0 0 0 0 0 0.25 0"/>
<feBlend mode="normal" in2="BackgroundImageFix" result="effect1_dropShadow_1153_228"/>
<feBlend mode="normal" in="SourceGraphic" in2="effect1_dropShadow_1153_228" result="shape"/>
</filter>
<filter id="filter10_d_1153_228" x="115.484" y="251.183" width="19.1172" height="41.0239" filterUnits="userSpaceOnUse" color-interpolation-filters="sRGB">
<feFlood flood-opacity="0" result="BackgroundImageFix"/>
<feColorMatrix in="SourceAlpha" type="matrix" values="0 0 0 0 0 0 0 0 0 0 0 0 0 0 0 0 0 0 127 0" result="hardAlpha"/>
<feOffset/>
<feGaussianBlur stdDeviation="4"/>
<feComposite in2="hardAlpha" operator="out"/>
<feColorMatrix type="matrix" values="0 0 0 0 0 0 0 0 0 0 0 0 0 0 0 0 0 0 0.25 0"/>
<feBlend mode="normal" in2="BackgroundImageFix" result="effect1_dropShadow_1153_228"/>
<feBlend mode="normal" in="SourceGraphic" in2="effect1_dropShadow_1153_228" result="shape"/>
</filter>
<filter id="filter11_d_1153_228" x="123" y="257.519" width="32.062" height="41.9609" filterUnits="userSpaceOnUse" color-interpolation-filters="sRGB">
<feFlood flood-opacity="0" result="BackgroundImageFix"/>
<feColorMatrix in="SourceAlpha" type="matrix" values="0 0 0 0 0 0 0 0 0 0 0 0 0 0 0 0 0 0 127 0" result="hardAlpha"/>
<feOffset/>
<feGaussianBlur stdDeviation="4"/>
<feComposite in2="hardAlpha" operator="out"/>
<feColorMatrix type="matrix" values="0 0 0 0 0 0 0 0 0 0 0 0 0 0 0 0 0 0 0.25 0"/>
<feBlend mode="normal" in2="BackgroundImageFix" result="effect1_dropShadow_1153_228"/>
<feBlend mode="normal" in="SourceGraphic" in2="effect1_dropShadow_1153_228" result="shape"/>
</filter>
<filter id="filter12_d_1153_228" x="142.402" y="257.519" width="32.063" height="41.9609" filterUnits="userSpaceOnUse" color-interpolation-filters="sRGB">
<feFlood flood-opacity="0" result="BackgroundImageFix"/>
<feColorMatrix in="SourceAlpha" type="matrix" values="0 0 0 0 0 0 0 0 0 0 0 0 0 0 0 0 0 0 127 0" result="hardAlpha"/>
<feOffset/>
<feGaussianBlur stdDeviation="4"/>
<feComposite in2="hardAlpha" operator="out"/>
<feColorMatrix type="matrix" values="0 0 0 0 0 0 0 0 0 0 0 0 0 0 0 0 0 0 0.25 0"/>
<feBlend mode="normal" in2="BackgroundImageFix" result="effect1_dropShadow_1153_228"/>
<feBlend mode="normal" in="SourceGraphic" in2="effect1_dropShadow_1153_228" result="shape"/>
</filter>
<filter id="filter13_d_1153_228" x="162.043" y="251.183" width="19.1172" height="41.0239" filterUnits="userSpaceOnUse" color-interpolation-filters="sRGB">
<feFlood flood-opacity="0" result="BackgroundImageFix"/>
<feColorMatrix in="SourceAlpha" type="matrix" values="0 0 0 0 0 0 0 0 0 0 0 0 0 0 0 0 0 0 127 0" result="hardAlpha"/>
<feOffset/>
<feGaussianBlur stdDeviation="4"/>
<feComposite in2="hardAlpha" operator="out"/>
<feColorMatrix type="matrix" values="0 0 0 0 0 0 0 0 0 0 0 0 0 0 0 0 0 0 0.25 0"/>
<feBlend mode="normal" in2="BackgroundImageFix" result="effect1_dropShadow_1153_228"/>
<feBlend mode="normal" in="SourceGraphic" in2="effect1_dropShadow_1153_228" result="shape"/>
</filter>
<filter id="filter14_d_1153_228" x="169.793" y="257.555" width="30.8711" height="34.6519" filterUnits="userSpaceOnUse" color-interpolation-filters="sRGB">
<feFlood flood-opacity="0" result="BackgroundImageFix"/>
<feColorMatrix in="SourceAlpha" type="matrix" values="0 0 0 0 0 0 0 0 0 0 0 0 0 0 0 0 0 0 127 0" result="hardAlpha"/>
<feOffset/>
<feGaussianBlur stdDeviation="4"/>
<feComposite in2="hardAlpha" operator="out"/>
<feColorMatrix type="matrix" values="0 0 0 0 0 0 0 0 0 0 0 0 0 0 0 0 0 0 0.25 0"/>
<feBlend mode="normal" in2="BackgroundImageFix" result="effect1_dropShadow_1153_228"/>
<feBlend mode="normal" in="SourceGraphic" in2="effect1_dropShadow_1153_228" result="shape"/>
</filter>
<filter id="filter15_d_1153_228" x="187.984" y="257.64" width="31.9961" height="42.2817" filterUnits="userSpaceOnUse" color-interpolation-filters="sRGB">
<feFlood flood-opacity="0" result="BackgroundImageFix"/>
<feColorMatrix in="SourceAlpha" type="matrix" values="0 0 0 0 0 0 0 0 0 0 0 0 0 0 0 0 0 0 127 0" result="hardAlpha"/>
<feOffset/>
<feGaussianBlur stdDeviation="4"/>
<feComposite in2="hardAlpha" operator="out"/>
<feColorMatrix type="matrix" values="0 0 0 0 0 0 0 0 0 0 0 0 0 0 0 0 0 0 0.25 0"/>
<feBlend mode="normal" in2="BackgroundImageFix" result="effect1_dropShadow_1153_228"/>
<feBlend mode="normal" in="SourceGraphic" in2="effect1_dropShadow_1153_228" result="shape"/>
</filter>
<filter id="filter16_d_1153_228" x="217.438" y="257.519" width="33.2539" height="35.3008" filterUnits="userSpaceOnUse" color-interpolation-filters="sRGB">
<feFlood flood-opacity="0" result="BackgroundImageFix"/>
<feColorMatrix in="SourceAlpha" type="matrix" values="0 0 0 0 0 0 0 0 0 0 0 0 0 0 0 0 0 0 127 0" result="hardAlpha"/>
<feOffset/>
<feGaussianBlur stdDeviation="4"/>
<feComposite in2="hardAlpha" operator="out"/>
<feColorMatrix type="matrix" values="0 0 0 0 0 0 0 0 0 0 0 0 0 0 0 0 0 0 0.25 0"/>
<feBlend mode="normal" in2="BackgroundImageFix" result="effect1_dropShadow_1153_228"/>
<feBlend mode="normal" in="SourceGraphic" in2="effect1_dropShadow_1153_228" result="shape"/>
</filter>
<filter id="filter17_d_1153_228" x="237.453" y="257.519" width="32.062" height="41.9609" filterUnits="userSpaceOnUse" color-interpolation-filters="sRGB">
<feFlood flood-opacity="0" result="BackgroundImageFix"/>
<feColorMatrix in="SourceAlpha" type="matrix" values="0 0 0 0 0 0 0 0 0 0 0 0 0 0 0 0 0 0 127 0" result="hardAlpha"/>
<feOffset/>
<feGaussianBlur stdDeviation="4"/>
<feComposite in2="hardAlpha" operator="out"/>
<feColorMatrix type="matrix" values="0 0 0 0 0 0 0 0 0 0 0 0 0 0 0 0 0 0 0.25 0"/>
<feBlend mode="normal" in2="BackgroundImageFix" result="effect1_dropShadow_1153_228"/>
<feBlend mode="normal" in="SourceGraphic" in2="effect1_dropShadow_1153_228" result="shape"/>
</filter>
<filter id="filter18_d_1153_228" x="256.855" y="257.519" width="32.063" height="41.9609" filterUnits="userSpaceOnUse" color-interpolation-filters="sRGB">
<feFlood flood-opacity="0" result="BackgroundImageFix"/>
<feColorMatrix in="SourceAlpha" type="matrix" values="0 0 0 0 0 0 0 0 0 0 0 0 0 0 0 0 0 0 127 0" result="hardAlpha"/>
<feOffset/>
<feGaussianBlur stdDeviation="4"/>
<feComposite in2="hardAlpha" operator="out"/>
<feColorMatrix type="matrix" values="0 0 0 0 0 0 0 0 0 0 0 0 0 0 0 0 0 0 0.25 0"/>
<feBlend mode="normal" in2="BackgroundImageFix" result="effect1_dropShadow_1153_228"/>
<feBlend mode="normal" in="SourceGraphic" in2="effect1_dropShadow_1153_228" result="shape"/>
</filter>
<linearGradient id="paint0_linear_1153_228" x1="60.5" y1="4.69071e-06" x2="272" y2="335" gradientUnits="userSpaceOnUse">
<stop stop-color="#BC161D"/>
<stop offset="0.49" stop-color="#2C0507"/>
<stop offset="0.5" stop-color="#1C1C4E"/>
<stop offset="1" stop-color="#0173B2"/>
</linearGradient>
</defs>
</svg>
