<svg width="335" height="335" viewBox="0 0 335 335" fill="none" xmlns="http://www.w3.org/2000/svg">
<path d="M52.1006 3H282.562C309.636 3.00026 331.668 25.0325 331.668 52.1055V282.566C331.668 309.636 309.636 331.668 282.562 331.668H52.1006C25.028 331.668 3.00022 309.636 3 282.566V52.1055C3 25.0322 25.0279 3.00023 52.1006 3Z" fill="url(#paint0_linear_1156_69)" stroke="white" stroke-width="6"/>
<g filter="url(#filter0_d_1156_69)">
<path d="M174.587 209.953C173.911 210.371 173.227 210.711 172.54 210.973C171.852 211.23 170.903 211.473 169.7 211.695L167.298 212.14C165.044 212.535 163.426 213.015 162.442 213.582C160.778 214.547 159.95 216.043 159.95 218.066C159.95 219.871 160.454 221.172 161.473 221.976C162.485 222.781 163.723 223.18 165.18 223.18C167.485 223.18 169.61 222.515 171.555 221.18C173.501 219.844 174.509 217.414 174.587 213.879V209.953ZM168.13 205.023C170.094 204.777 171.497 204.469 172.348 204.097C173.864 203.453 174.622 202.453 174.622 201.094C174.622 199.441 174.04 198.297 172.876 197.668C171.712 197.039 170.005 196.723 167.751 196.723C165.219 196.723 163.43 197.34 162.38 198.574C161.626 199.488 161.126 200.726 160.876 202.281H150.684C150.907 198.75 151.903 195.847 153.661 193.574C156.466 190.015 161.278 188.238 168.102 188.238C172.544 188.238 176.489 189.113 179.938 190.867C183.387 192.621 185.11 195.933 185.11 200.801V219.328C185.11 220.613 185.133 222.168 185.184 223.996C185.259 225.379 185.469 226.32 185.813 226.812C186.161 227.305 186.676 227.715 187.372 228.035V229.594H175.883C175.563 228.777 175.341 228.012 175.216 227.293C175.091 226.578 174.993 225.762 174.919 224.847C173.454 226.43 171.762 227.777 169.848 228.887C167.563 230.199 164.977 230.851 162.098 230.851C158.423 230.851 155.383 229.808 152.985 227.719C150.587 225.633 149.387 222.676 149.387 218.844C149.387 213.879 151.317 210.285 155.173 208.062C157.29 206.851 160.399 205.988 164.509 205.469L168.13 205.023Z" fill="white"/>
<path d="M168.102 188.738C172.477 188.738 176.342 189.599 179.711 191.312C182.946 192.958 184.609 196.064 184.609 200.802V219.328C184.609 220.619 184.633 222.178 184.684 224.01L184.685 224.023C184.723 224.732 184.796 225.342 184.909 225.848C185.021 226.347 185.178 226.777 185.403 227.099L185.404 227.101C185.759 227.603 186.252 228.016 186.872 228.345V229.095H176.231C175.986 228.423 175.81 227.796 175.708 227.208V227.207C175.586 226.511 175.49 225.711 175.417 224.807L175.325 223.672L174.552 224.508C173.122 226.053 171.47 227.369 169.599 228.454C167.397 229.718 164.898 230.352 162.098 230.352C158.523 230.352 155.606 229.339 153.313 227.342H153.312C151.046 225.37 149.887 222.564 149.887 218.845C149.887 214.034 151.742 210.617 155.423 208.495L155.422 208.494C157.455 207.332 160.487 206.48 164.569 205.965L164.57 205.966L168.19 205.52H168.191C170.162 205.273 171.626 204.958 172.548 204.556L172.547 204.555C173.359 204.209 174.007 203.753 174.452 203.166C174.902 202.572 175.122 201.874 175.122 201.095C175.122 199.313 174.482 197.968 173.113 197.229C171.842 196.542 170.037 196.224 167.751 196.224C165.155 196.224 163.187 196.854 161.999 198.25L161.994 198.256C161.241 199.169 160.74 200.356 160.46 201.781H151.224C151.504 198.572 152.458 195.948 154.054 193.884C156.724 190.496 161.351 188.738 168.102 188.738ZM174.324 209.528C173.673 209.931 173.017 210.256 172.361 210.506C171.712 210.748 170.797 210.984 169.609 211.203L169.608 211.204L167.211 211.647C164.946 212.044 163.256 212.537 162.192 213.149H162.19C160.362 214.21 159.45 215.878 159.45 218.066C159.45 219.96 159.981 221.437 161.163 222.369V222.368C162.275 223.252 163.627 223.681 165.18 223.681C167.588 223.681 169.811 222.984 171.838 221.593C173.973 220.127 175.007 217.502 175.087 213.891V209.057L174.324 209.528Z" stroke="white"/>
</g>
<g filter="url(#filter1_d_1156_69)">
<path d="M220.199 201.133C218.761 198.734 216.433 197.539 213.215 197.539C209.347 197.539 206.687 199.355 205.242 202.984C204.492 204.91 204.117 207.359 204.117 210.324C204.117 215.015 205.379 218.312 207.894 220.215C209.394 221.328 211.164 221.883 213.215 221.883C216.183 221.883 218.449 220.746 220.011 218.476C221.57 216.203 222.351 213.176 222.351 209.394C222.351 206.285 221.632 203.531 220.199 201.133ZM228.304 193.535C231.597 197.019 233.246 202.133 233.246 208.879C233.246 215.992 231.636 221.414 228.414 225.144C225.195 228.875 221.047 230.742 215.976 230.742C212.742 230.742 210.062 229.937 207.922 228.332C206.754 227.441 205.605 226.144 204.488 224.441V245.488H194.039V189.199H204.156V195.168C205.297 193.414 206.519 192.031 207.812 191.015C210.172 189.211 212.98 188.312 216.238 188.312C220.988 188.312 225.008 190.051 228.304 193.535Z" fill="white"/>
<path d="M216.238 188.812C220.849 188.812 224.738 190.494 227.94 193.878C231.115 197.238 232.746 202.209 232.746 208.879C232.746 215.924 231.151 221.211 228.036 224.817L228.035 224.818C224.914 228.435 220.907 230.242 215.977 230.242C212.83 230.242 210.261 229.461 208.225 227.934H208.226C207.116 227.087 206.003 225.838 204.906 224.167L203.988 222.767V244.988H194.539V189.699H203.656V196.854L204.575 195.441C205.692 193.724 206.876 192.386 208.115 191.412L208.116 191.413C210.38 189.682 213.079 188.812 216.238 188.812ZM213.215 197.039C211.201 197.039 209.466 197.513 208.038 198.488C206.611 199.463 205.529 200.912 204.777 202.799L204.776 202.802C203.996 204.805 203.617 207.322 203.617 210.324C203.617 215.093 204.901 218.577 207.593 220.614L207.596 220.617C209.19 221.8 211.068 222.383 213.215 222.383C216.333 222.383 218.759 221.177 220.423 218.759H220.424C222.058 216.377 222.852 213.241 222.852 209.394C222.852 206.205 222.112 203.36 220.628 200.876V200.875L220.48 200.638C218.927 198.223 216.471 197.039 213.215 197.039Z" stroke="white"/>
</g>
<g filter="url(#filter2_d_1156_69)">
<path d="M266.554 201.133C265.117 198.734 262.789 197.539 259.574 197.539C255.703 197.539 253.047 199.355 251.597 202.984C250.851 204.91 250.476 207.359 250.476 210.324C250.476 215.015 251.734 218.312 254.254 220.215C255.75 221.328 257.523 221.883 259.57 221.883C262.539 221.883 264.808 220.746 266.367 218.476C267.925 216.203 268.707 213.176 268.707 209.394C268.707 206.285 267.992 203.531 266.554 201.133ZM274.66 193.535C277.957 197.019 279.601 202.133 279.601 208.879C279.601 215.992 277.992 221.414 274.769 225.144C271.55 228.875 267.406 230.742 262.332 230.742C259.101 230.742 256.418 229.937 254.277 228.332C253.109 227.441 251.965 226.144 250.847 224.441V245.488H240.398V189.199H250.511V195.168C251.656 193.414 252.875 192.031 254.168 191.015C256.527 189.211 259.34 188.312 262.597 188.312C267.343 188.312 271.367 190.051 274.66 193.535Z" fill="white"/>
<path d="M262.598 188.812C267.205 188.812 271.098 190.494 274.297 193.878C277.476 197.237 279.102 202.209 279.102 208.879C279.102 215.925 277.507 221.211 274.391 224.817V224.818C271.27 228.435 267.265 230.242 262.332 230.242C259.188 230.242 256.618 229.46 254.58 227.934H254.581C253.472 227.088 252.364 225.839 251.266 224.167L250.348 222.768V244.988H240.898V189.699H250.012V196.848L250.93 195.441C252.051 193.724 253.233 192.387 254.472 191.413C256.735 189.682 259.439 188.812 262.598 188.812ZM259.574 197.039C257.559 197.039 255.824 197.513 254.396 198.488C252.969 199.462 251.887 200.912 251.133 202.798L251.131 202.803C250.355 204.806 249.977 207.322 249.977 210.324C249.977 215.092 251.256 218.577 253.953 220.614L253.956 220.616C255.547 221.799 257.427 222.383 259.57 222.383C262.689 222.383 265.119 221.177 266.779 218.759L266.78 218.758C268.413 216.377 269.207 213.241 269.207 209.394C269.207 206.205 268.473 203.36 266.983 200.875H266.982C265.44 198.301 262.933 197.039 259.574 197.039Z" stroke="white"/>
</g>
<g filter="url(#filter3_d_1156_69)">
<path d="M151.059 79.1682H176.079V173.558H151.059V79.1682ZM176.079 67.9102H151.059V45.1372H176.079V67.9102Z" fill="white"/>
<path d="M175.578 79.6685V173.058H151.559V79.6685H175.578ZM175.578 45.6372V67.4106H151.559V45.6372H175.578Z" stroke="white"/>
</g>
<g filter="url(#filter4_d_1156_69)">
<path d="M251.175 72.3473C247.906 66.8793 242.593 64.1443 235.25 64.1443C226.429 64.1443 220.355 68.2893 217.058 76.5743C215.355 80.9733 214.496 86.5553 214.496 93.3163C214.496 104.027 217.371 111.551 223.117 115.894C226.527 118.43 230.574 119.699 235.25 119.699C242.031 119.699 247.187 117.105 250.754 111.918C254.32 106.734 256.093 99.8283 256.093 91.2033C256.093 84.1013 254.461 77.8163 251.175 72.3473ZM269.679 55.0153C277.191 62.9613 280.953 74.6293 280.953 90.0193C280.953 106.254 277.277 118.629 269.933 127.14C262.593 135.652 253.121 139.906 241.55 139.906C234.183 139.906 228.05 138.074 223.175 134.41C220.5 132.383 217.89 129.422 215.34 125.531V173.558H191.496V45.1213H214.578V58.7343C217.187 54.7303 219.961 51.5743 222.922 49.2653C228.304 45.1483 234.718 43.0903 242.144 43.0903C252.98 43.0903 262.156 47.0663 269.679 55.0153Z" fill="white"/>
<path d="M242.145 43.5903C252.841 43.5904 261.886 47.5082 269.315 55.3579V55.3589C276.709 63.18 280.453 74.7049 280.453 90.019C280.453 106.186 276.792 118.427 269.555 126.814C262.313 135.212 252.981 139.407 241.55 139.407C234.268 139.407 228.246 137.596 223.475 134.01C220.86 132.028 218.287 129.117 215.758 125.257L214.84 123.856V173.058H191.996V45.6216H214.078V60.4175L214.997 59.0073C217.583 55.0388 220.32 51.9292 223.226 49.6626C228.512 45.6189 234.817 43.5903 242.145 43.5903ZM235.25 63.644C230.76 63.6441 226.933 64.7003 223.801 66.8394C220.669 68.9783 218.271 72.1742 216.594 76.3892L216.592 76.394C214.859 80.8693 213.996 86.5175 213.996 93.3159C213.996 104.105 216.892 111.817 222.815 116.293L222.818 116.295C226.323 118.902 230.478 120.2 235.25 120.2C241.965 120.2 247.164 117.7 250.817 112.694L251.166 112.202C254.807 106.908 256.593 99.8926 256.593 91.2036C256.593 84.022 254.942 77.6451 251.604 72.0894C248.229 66.4457 242.736 63.644 235.25 63.644Z" stroke="white"/>
</g>
<g filter="url(#filter5_d_1156_69)">
<path d="M53.7109 117.746V88.6683H75.4799V45.1333H115.871V88.6683H141.218V117.746H115.871V200.238C115.871 206.633 116.679 210.621 118.304 212.195C119.929 213.769 124.89 214.558 133.199 214.558C134.437 214.558 135.754 214.535 137.14 214.488C138.519 214.437 139.882 214.367 141.218 214.269V244.777L121.886 245.492C102.597 246.164 89.4219 242.824 82.3549 235.469C77.7729 230.789 75.4799 223.582 75.4799 213.84V117.746H53.7109Z" fill="white"/>
<path d="M115.371 45.6333V89.1685H140.718V117.247H115.371V200.239C115.371 203.453 115.574 206.086 115.988 208.125C116.399 210.147 117.033 211.66 117.956 212.554C118.434 213.017 119.122 213.391 119.979 213.699C120.842 214.008 121.907 214.26 123.167 214.46C125.686 214.86 129.033 215.058 133.199 215.058C134.443 215.058 135.766 215.035 137.157 214.988H137.158C138.358 214.943 139.547 214.883 140.718 214.804V244.295L121.867 244.993C102.606 245.664 89.6257 242.314 82.7158 235.123L82.7119 235.12L82.3008 234.686C78.1174 230.127 75.9795 223.212 75.9795 213.84V117.247H54.2109V89.1685H75.9795V45.6333H115.371Z" stroke="white"/>
</g>
<g filter="url(#filter6_d_1156_69)">
<path d="M56.2181 260.871H59.3201V265.965H62.2301V268.469H59.3201V280.375C59.3201 281.012 59.5351 281.437 59.9651 281.652C60.2031 281.777 60.6011 281.84 61.1561 281.84C61.3041 281.84 61.4651 281.836 61.6361 281.832C61.8041 281.828 62.0041 281.812 62.2301 281.789V284.207C61.8791 284.312 61.5111 284.383 61.1321 284.43C60.7501 284.473 60.3401 284.496 59.8981 284.496C58.4651 284.496 57.4961 284.133 56.9841 283.398C56.4721 282.668 56.2181 281.715 56.2181 280.547V268.469H53.7461V265.965H56.2181V260.871Z" fill="white"/>
<path d="M58.8203 261.371V266.465H61.7305V267.969H58.8203V280.375C58.8203 281.129 59.0863 281.771 59.7412 282.099C60.0933 282.28 60.5932 282.34 61.1562 282.34C61.3113 282.34 61.4788 282.336 61.6475 282.332H61.6484C61.6753 282.331 61.7026 282.328 61.7305 282.327V283.819C61.5182 283.867 61.2979 283.905 61.0703 283.934C60.7099 283.974 60.3207 283.996 59.8984 283.996C58.5275 283.996 57.7671 283.647 57.3945 283.112L57.3936 283.111L57.2393 282.867C56.901 282.274 56.7178 281.508 56.7178 280.547V267.969H54.2461V266.465H56.7178V261.371H58.8203Z" stroke="white"/>
</g>
<g filter="url(#filter7_d_1156_69)">
<path d="M65.2969 259.097H68.3629V268.433C69.0899 267.512 69.7419 266.867 70.3239 266.492C71.3079 265.844 72.5429 265.519 74.0189 265.519C76.6639 265.519 78.4569 266.445 79.4019 268.297C79.9139 269.308 80.1679 270.711 80.1679 272.504V284.207H77.0149V272.711C77.0149 271.371 76.8429 270.387 76.5039 269.762C75.9489 268.765 74.9019 268.262 73.3709 268.262C72.0969 268.262 70.9449 268.699 69.9139 269.574C68.8789 270.449 68.3629 272.101 68.3629 274.531V284.207H65.2969V259.097Z" fill="white"/>
<path d="M67.8633 259.597V269.874L68.7549 268.743C69.4679 267.839 70.0803 267.244 70.5947 266.913L70.5986 266.91C71.4824 266.328 72.6157 266.019 74.0186 266.019C76.5358 266.019 78.1208 266.887 78.9561 268.524C79.4174 269.435 79.668 270.749 79.668 272.504V283.708H77.5146V272.711C77.5146 271.349 77.3433 270.261 76.9434 269.524L76.9404 269.519L76.8076 269.3C76.1095 268.244 74.9108 267.762 73.3711 267.762C71.9713 267.762 70.706 268.246 69.5908 269.192C68.3804 270.215 67.8633 272.064 67.8633 274.531V283.708H65.7969V259.597H67.8633Z" stroke="white"/>
</g>
<g filter="url(#filter8_d_1156_69)">
<path d="M97.1838 273.629C97.0588 272.301 96.7698 271.238 96.3168 270.445C95.4768 268.969 94.0748 268.23 92.1098 268.23C90.6998 268.23 89.5198 268.738 88.5668 269.754C87.6138 270.769 87.1058 272.062 87.0508 273.629H97.1838ZM96.0588 266.469C97.2778 267.074 98.2038 267.859 98.8368 268.828C99.4498 269.746 99.8598 270.82 100.063 272.047C100.247 272.887 100.337 274.226 100.337 276.066H86.9658C87.0198 277.918 87.4578 279.402 88.2778 280.519C89.0938 281.637 90.3598 282.199 92.0748 282.199C93.6758 282.199 94.9538 281.668 95.9068 280.613C96.4538 280 96.8408 279.293 97.0668 278.484H100.083C100.001 279.156 99.7388 279.902 99.2898 280.723C98.8408 281.547 98.3368 282.219 97.7818 282.742C96.8518 283.652 95.6998 284.265 94.3248 284.582C93.5868 284.765 92.7508 284.855 91.8208 284.855C89.5478 284.855 87.6218 284.031 86.0438 282.375C84.4658 280.723 83.6758 278.41 83.6758 275.433C83.6758 272.504 84.4728 270.125 86.0628 268.297C87.6528 266.469 89.7308 265.555 92.2978 265.555C93.5908 265.555 94.8438 265.859 96.0588 266.469Z" fill="white"/>
<path d="M92.2979 266.055C93.509 266.055 94.6852 266.34 95.834 266.917L95.8369 266.917C96.9904 267.49 97.842 268.22 98.418 269.102L98.4209 269.106C98.9898 269.958 99.3765 270.963 99.5693 272.128L99.5713 272.141L99.5742 272.154C99.7298 272.864 99.8187 273.993 99.834 275.566H86.4512L86.4658 276.081C86.5218 278 86.9777 279.591 87.874 280.813V280.814C88.8064 282.091 90.2425 282.699 92.0752 282.699C93.7982 282.699 95.2176 282.122 96.2773 280.949L96.2803 280.946C96.7943 280.37 97.1781 279.716 97.4326 278.984H99.4746C99.3538 279.436 99.1508 279.936 98.8516 280.483L98.8506 280.484C98.4218 281.271 97.948 281.898 97.4385 282.378L97.4316 282.385C96.573 283.225 95.5058 283.797 94.2129 284.095L94.2041 284.097C93.5137 284.268 92.719 284.355 91.8203 284.355C89.6846 284.355 87.89 283.587 86.4062 282.03H86.4053C84.9405 280.496 84.1758 278.322 84.1758 275.433C84.1758 272.599 84.9452 270.345 86.4404 268.625C87.9292 266.914 89.8658 266.055 92.2979 266.055ZM92.1094 267.73C90.5633 267.73 89.2507 268.294 88.2021 269.412C87.1562 270.526 86.6095 271.939 86.5508 273.612L86.5332 274.129H97.7334L97.6816 273.583C97.5528 272.214 97.2507 271.073 96.75 270.197C95.8056 268.538 94.22 267.73 92.1094 267.73Z" stroke="white"/>
</g>
<g filter="url(#filter9_d_1156_69)">
<path d="M114.406 260.871H117.508V265.965H120.419V268.469H117.508V280.375C117.508 281.012 117.722 281.437 118.152 281.652C118.394 281.777 118.789 281.84 119.347 281.84C119.496 281.84 119.652 281.836 119.824 281.832C119.996 281.828 120.192 281.812 120.419 281.789V284.207C120.067 284.312 119.703 284.383 119.32 284.43C118.941 284.473 118.528 284.496 118.087 284.496C116.657 284.496 115.683 284.133 115.175 283.398C114.66 282.668 114.406 281.715 114.406 280.547V268.469H111.938V265.965H114.406V260.871Z" fill="white"/>
<path d="M117.009 261.371V266.465H119.919V267.969H117.009V280.375C117.009 281.126 117.272 281.767 117.923 282.096V282.097C117.925 282.098 117.927 282.099 117.929 282.1V282.099C118.283 282.28 118.778 282.34 119.348 282.34C119.504 282.34 119.667 282.336 119.836 282.332C119.863 282.331 119.891 282.328 119.919 282.327V283.819C119.791 283.848 119.66 283.875 119.525 283.896L119.26 283.934C118.902 283.974 118.509 283.996 118.087 283.996C116.803 283.996 116.052 283.689 115.66 283.212L115.584 283.11L115.429 282.866C115.089 282.273 114.906 281.508 114.906 280.547V267.969H112.438V266.465H114.906V261.371H117.009Z" stroke="white"/>
</g>
<g filter="url(#filter10_d_1156_69)">
<path d="M123.484 266.051H126.601V284.207H123.484V266.051ZM123.484 259.183H126.601V262.66H123.484V259.183Z" fill="white"/>
<path d="M126.102 266.551V283.708H123.984V266.551H126.102ZM126.102 259.683V262.16H123.984V259.683H126.102Z" stroke="white"/>
</g>
<g filter="url(#filter11_d_1156_69)">
<path d="M142.504 280.351C143.453 279.152 143.925 277.359 143.925 274.976C143.925 273.523 143.718 272.273 143.297 271.226C142.5 269.219 141.047 268.215 138.937 268.215C136.812 268.215 135.359 269.273 134.574 271.398C134.156 272.535 133.945 273.976 133.945 275.726C133.945 277.133 134.156 278.332 134.574 279.32C135.371 281.203 136.824 282.148 138.937 282.148C140.367 282.148 141.558 281.547 142.504 280.351ZM131 266.051H133.98V268.469C134.593 267.64 135.261 266.996 135.988 266.543C137.023 265.859 138.238 265.519 139.636 265.519C141.699 265.519 143.457 266.312 144.898 267.898C146.34 269.48 147.062 271.746 147.062 274.687C147.062 278.66 146.023 281.5 143.945 283.203C142.625 284.281 141.093 284.82 139.343 284.82C137.968 284.82 136.816 284.519 135.886 283.918C135.34 283.578 134.734 282.992 134.062 282.164V291.48H131V266.051Z" fill="white"/>
<path d="M139.636 266.019C141.552 266.019 143.178 266.748 144.528 268.234V268.235C145.859 269.695 146.562 271.824 146.562 274.687C146.562 278.584 145.543 281.246 143.628 282.816C142.4 283.819 140.98 284.32 139.343 284.32C138.041 284.32 136.989 284.036 136.157 283.499V283.498L136.15 283.494L135.967 283.371C135.53 283.058 135.026 282.558 134.45 281.849L133.562 280.754V290.98H131.5V266.551H133.48V269.986L134.382 268.766C134.966 267.977 135.589 267.38 136.252 266.967H136.253L136.264 266.96C137.206 266.337 138.323 266.019 139.636 266.019ZM138.938 267.715C137.789 267.715 136.785 268.003 135.958 268.606C135.133 269.207 134.523 270.094 134.105 271.225H134.104C133.659 272.436 133.445 273.94 133.445 275.726C133.445 277.181 133.663 278.45 134.113 279.515C134.543 280.532 135.165 281.325 135.99 281.86C136.814 282.394 137.806 282.648 138.938 282.648C140.532 282.648 141.863 281.968 142.896 280.662C143.945 279.337 144.425 277.412 144.425 274.976C144.425 273.665 144.262 272.493 143.919 271.469L143.761 271.04C143.334 269.966 142.717 269.125 141.894 268.556C141.068 267.986 140.074 267.715 138.938 267.715Z" stroke="white"/>
</g>
<g filter="url(#filter12_d_1156_69)">
<path d="M161.906 280.351C162.855 279.152 163.328 277.359 163.328 274.976C163.328 273.523 163.121 272.273 162.699 271.226C161.902 269.219 160.453 268.215 158.34 268.215C156.215 268.215 154.761 269.273 153.976 271.398C153.558 272.535 153.347 273.976 153.347 275.726C153.347 277.133 153.558 278.332 153.976 279.32C154.773 281.203 156.226 282.148 158.34 282.148C159.769 282.148 160.961 281.547 161.906 280.351ZM150.402 266.051H153.382V268.469C153.996 267.64 154.664 266.996 155.39 266.543C156.425 265.859 157.64 265.519 159.039 265.519C161.105 265.519 162.859 266.312 164.3 267.898C165.742 269.48 166.465 271.746 166.465 274.687C166.465 278.66 165.425 281.5 163.347 283.203C162.031 284.281 160.496 284.82 158.746 284.82C157.375 284.82 156.222 284.519 155.289 283.918C154.742 283.578 154.136 282.992 153.465 282.164V291.48H150.402V266.051Z" fill="white"/>
<path d="M159.039 266.019C160.958 266.019 162.58 266.748 163.931 268.234V268.235C165.262 269.695 165.966 271.824 165.966 274.687C165.966 278.584 164.945 281.246 163.03 282.816C161.806 283.818 160.384 284.32 158.746 284.32C157.449 284.32 156.396 284.035 155.561 283.498L155.554 283.494L155.37 283.371C154.933 283.058 154.428 282.558 153.854 281.849L152.966 280.752V290.98H150.902V266.551H152.883V269.984L153.784 268.767C154.296 268.076 154.837 267.532 155.408 267.13L155.655 266.967L155.666 266.96C156.609 266.337 157.725 266.019 159.039 266.019ZM158.341 267.715C157.192 267.715 156.189 268.003 155.361 268.606C154.536 269.207 153.926 270.094 153.508 271.225H153.507C153.062 272.436 152.848 273.94 152.848 275.726C152.848 277.181 153.065 278.45 153.516 279.515C153.946 280.532 154.567 281.325 155.393 281.86C156.217 282.394 157.209 282.648 158.341 282.648C159.934 282.648 161.266 281.967 162.298 280.661L162.299 280.662C163.347 279.337 163.828 277.412 163.828 274.976C163.828 273.665 163.665 272.493 163.321 271.469L163.163 271.04C162.736 269.966 162.121 269.125 161.298 268.556C160.473 267.986 159.478 267.715 158.341 267.715Z" stroke="white"/>
</g>
<g filter="url(#filter13_d_1156_69)">
<path d="M170.043 266.051H173.16V284.207H170.043V266.051ZM170.043 259.183H173.16V262.66H170.043V259.183Z" fill="white"/>
<path d="M172.66 266.551V283.708H170.543V266.551H172.66ZM172.66 259.683V262.16H170.543V259.683H172.66Z" stroke="white"/>
</g>
<g filter="url(#filter14_d_1156_69)">
<path d="M177.793 265.965H180.703V268.555C181.57 267.484 182.48 266.719 183.449 266.254C184.414 265.789 185.484 265.555 186.668 265.555C189.254 265.555 191.004 266.457 191.914 268.262C192.414 269.25 192.664 270.664 192.664 272.504V284.207H189.547V272.711C189.547 271.597 189.379 270.699 189.05 270.019C188.504 268.883 187.519 268.316 186.086 268.316C185.359 268.316 184.765 268.39 184.3 268.535C183.457 268.785 182.718 269.285 182.086 270.035C181.574 270.637 181.242 271.258 181.086 271.902C180.933 272.543 180.859 273.457 180.859 274.652V284.207H177.793V265.965Z" fill="white"/>
<path d="M186.668 266.055C189.128 266.055 190.668 266.9 191.468 268.487V268.488C191.916 269.374 192.164 270.697 192.164 272.504V283.708H190.047V272.711C190.047 271.554 189.873 270.574 189.5 269.802H189.501C189.189 269.154 188.74 268.648 188.149 268.308C187.563 267.971 186.867 267.816 186.086 267.816C185.424 267.816 184.845 267.875 184.355 268L184.151 268.058C183.325 268.304 182.597 268.763 181.968 269.419L181.705 269.711C181.152 270.362 180.777 271.052 180.6 271.785V271.786C180.433 272.484 180.359 273.445 180.359 274.652V283.708H178.293V266.465H180.203V269.967L181.092 268.87C181.925 267.84 182.78 267.129 183.665 266.705H183.666C184.557 266.275 185.552 266.055 186.668 266.055Z" stroke="white"/>
</g>
<g filter="url(#filter15_d_1156_69)">
<path d="M207.754 269.984C206.824 268.894 205.636 268.347 204.195 268.347C202.035 268.347 200.558 269.359 199.765 271.383C199.343 272.461 199.136 273.875 199.136 275.621C199.136 277.68 199.55 279.242 200.386 280.316C201.222 281.387 202.343 281.926 203.754 281.926C205.957 281.926 207.504 280.933 208.402 278.945C208.902 277.82 209.152 276.508 209.152 275.012C209.152 272.75 208.687 271.074 207.754 269.984ZM207.379 266.699C207.961 267.094 208.55 267.672 209.152 268.433V266.133H211.98V282.726C211.98 285.043 211.64 286.871 210.957 288.211C209.687 290.687 207.285 291.922 203.754 291.922C201.785 291.922 200.136 291.484 198.797 290.605C197.457 289.723 196.707 288.347 196.547 286.473H199.664C199.812 287.289 200.105 287.922 200.55 288.363C201.242 289.043 202.332 289.387 203.82 289.387C206.172 289.387 207.711 288.558 208.437 286.898C208.867 285.922 209.066 284.18 209.031 281.672C208.418 282.601 207.679 283.293 206.816 283.746C205.957 284.203 204.812 284.43 203.394 284.43C201.418 284.43 199.687 283.73 198.207 282.324C196.726 280.922 195.984 278.605 195.984 275.367C195.984 272.312 196.73 269.926 198.226 268.211C199.718 266.496 201.519 265.64 203.632 265.64C205.062 265.64 206.312 265.992 207.379 266.699Z" fill="white"/>
<path d="M203.633 266.14C204.975 266.14 206.125 266.468 207.099 267.112V267.113C207.625 267.47 208.178 268.008 208.76 268.744L209.652 269.872V266.633H211.48V282.726C211.48 285.003 211.145 286.742 210.512 287.984C209.352 290.245 207.157 291.422 203.754 291.422C201.86 291.422 200.313 291.001 199.072 290.187C198.01 289.488 197.349 288.437 197.113 286.973H199.264C199.444 287.675 199.745 288.269 200.198 288.718L200.2 288.72C201.024 289.53 202.268 289.887 203.82 289.887C205.052 289.887 206.112 289.671 206.976 289.206C207.847 288.736 208.489 288.027 208.896 287.098L208.895 287.097C209.372 286.012 209.566 284.172 209.531 281.666L209.509 280.041L208.614 281.397C208.041 282.266 207.362 282.895 206.584 283.303L206.581 283.305C205.821 283.71 204.766 283.93 203.395 283.93C201.551 283.93 199.942 283.282 198.552 281.961H198.551C197.215 280.697 196.484 278.546 196.484 275.367C196.484 272.577 197.123 270.421 198.35 268.847L198.604 268.54C200.009 266.924 201.676 266.14 203.633 266.14ZM204.195 267.847C203.036 267.847 202.023 268.12 201.186 268.694C200.348 269.268 199.725 270.116 199.3 271.201C198.846 272.359 198.637 273.843 198.637 275.622C198.637 277.604 199.009 279.213 199.823 280.393L199.992 280.624C200.926 281.82 202.195 282.426 203.754 282.426C204.932 282.426 205.968 282.16 206.838 281.602C207.708 281.044 208.377 280.216 208.858 279.151L208.859 279.148C209.393 277.947 209.652 276.563 209.652 275.012C209.652 272.696 209.178 270.879 208.134 269.659C207.108 268.457 205.781 267.847 204.195 267.847Z" stroke="white"/>
</g>
<g filter="url(#filter16_d_1156_69)">
<path d="M229.609 281.449C230.258 281.961 231.023 282.215 231.91 282.215C232.988 282.215 234.035 281.965 235.047 281.465C236.75 280.637 237.602 279.281 237.602 277.394V274.926C237.227 275.164 236.742 275.363 236.152 275.519C235.558 275.68 234.98 275.793 234.414 275.859L232.559 276.097C231.446 276.246 230.61 276.48 230.055 276.797C229.11 277.332 228.641 278.183 228.641 279.351C228.641 280.238 228.965 280.937 229.609 281.449ZM236.066 273.152C236.769 273.062 237.242 272.765 237.48 272.265C237.617 271.992 237.688 271.601 237.688 271.09C237.688 270.047 237.312 269.289 236.566 268.816C235.824 268.347 234.761 268.109 233.375 268.109C231.773 268.109 230.637 268.543 229.969 269.402C229.594 269.883 229.347 270.594 229.234 271.535H226.375C226.429 269.285 227.161 267.723 228.562 266.844C229.965 265.961 231.593 265.519 233.445 265.519C235.59 265.519 237.332 265.93 238.672 266.746C240 267.566 240.664 268.84 240.664 270.562V281.074C240.664 281.39 240.73 281.648 240.863 281.84C240.992 282.035 241.269 282.129 241.688 282.129C241.824 282.129 241.976 282.121 242.148 282.101C242.32 282.086 242.5 282.062 242.691 282.027V284.293C242.215 284.43 241.856 284.515 241.602 284.551C241.352 284.582 241.011 284.597 240.582 284.597C239.523 284.597 238.758 284.226 238.281 283.476C238.031 283.078 237.855 282.515 237.754 281.789C237.129 282.605 236.23 283.316 235.062 283.918C233.89 284.519 232.601 284.82 231.195 284.82C229.504 284.82 228.121 284.308 227.047 283.277C225.972 282.254 225.438 280.965 225.438 279.422C225.438 277.73 225.966 276.418 227.02 275.488C228.079 274.555 229.466 273.98 231.176 273.765L236.066 273.152Z" fill="white"/>
<path d="M233.445 266.019C235.53 266.019 237.174 266.418 238.412 267.172C239.574 267.89 240.164 268.993 240.164 270.562V281.074C240.164 281.454 240.243 281.823 240.452 282.125V282.124C240.731 282.537 241.242 282.629 241.688 282.629C241.84 282.629 242.007 282.62 242.191 282.599V283.909C241.907 283.983 241.69 284.033 241.532 284.055C241.313 284.082 240.998 284.097 240.582 284.097C239.655 284.097 239.069 283.783 238.703 283.208C238.507 282.893 238.346 282.409 238.25 281.72L238.085 280.536L237.357 281.485C236.788 282.228 235.953 282.896 234.833 283.473C233.737 284.035 232.527 284.32 231.195 284.32C229.614 284.32 228.361 283.845 227.394 282.917L227.393 282.915L227.216 282.739C226.363 281.846 225.938 280.747 225.938 279.422C225.938 277.842 226.426 276.679 227.351 275.863L227.35 275.862C228.318 275.009 229.605 274.466 231.237 274.26L236.129 273.648H236.13C236.945 273.544 237.594 273.179 237.927 272.489L237.928 272.49C238.115 272.116 238.187 271.635 238.188 271.09C238.188 269.911 237.752 268.976 236.834 268.394V268.393L236.67 268.295C235.832 267.823 234.718 267.609 233.376 267.609C231.694 267.609 230.375 268.065 229.574 269.094C229.19 269.587 228.943 270.245 228.804 271.035H226.902C227.045 269.179 227.716 267.966 228.828 267.268L228.829 267.267C230.143 266.44 231.676 266.019 233.445 266.019ZM237.334 274.503C237.014 274.706 236.581 274.888 236.024 275.036L236.021 275.037C235.45 275.192 234.896 275.3 234.356 275.363H234.351L232.495 275.601H232.492C231.357 275.753 230.447 275.998 229.809 276.362C228.692 276.994 228.141 278.021 228.141 279.351C228.141 280.378 228.526 281.226 229.298 281.84L229.3 281.841C230.044 282.428 230.92 282.715 231.91 282.715C233.068 282.715 234.191 282.446 235.269 281.914L235.268 281.913C236.187 281.465 236.903 280.863 237.387 280.092C237.871 279.321 238.102 278.415 238.102 277.394V274.016L237.334 274.503Z" stroke="white"/>
</g>
<g filter="url(#filter17_d_1156_69)">
<path d="M256.957 280.351C257.906 279.152 258.379 277.359 258.379 274.976C258.379 273.523 258.172 272.273 257.75 271.226C256.957 269.219 255.5 268.215 253.39 268.215C251.265 268.215 249.812 269.273 249.031 271.398C248.609 272.535 248.398 273.976 248.398 275.726C248.398 277.133 248.609 278.332 249.031 279.32C249.824 281.203 251.277 282.148 253.39 282.148C254.82 282.148 256.011 281.547 256.957 280.351ZM245.453 266.051H248.433V268.469C249.047 267.64 249.715 266.996 250.445 266.543C251.476 265.859 252.691 265.519 254.09 265.519C256.156 265.519 257.91 266.312 259.351 267.898C260.793 269.48 261.515 271.746 261.515 274.687C261.515 278.66 260.476 281.5 258.398 283.203C257.082 284.281 255.547 284.82 253.8 284.82C252.425 284.82 251.269 284.519 250.34 283.918C249.797 283.578 249.187 282.992 248.519 282.164V291.48H245.453V266.051Z" fill="white"/>
<path d="M254.09 266.019C256.009 266.019 257.631 266.748 258.981 268.234V268.235C260.312 269.695 261.016 271.824 261.016 274.687C261.016 278.584 259.996 281.246 258.081 282.816C256.857 283.818 255.435 284.32 253.8 284.32C252.498 284.32 251.442 284.036 250.611 283.499L250.605 283.495L250.423 283.372C249.986 283.058 249.479 282.558 248.908 281.85L248.02 280.748V290.98H245.953V266.551H247.934V269.984L248.835 268.767C249.42 267.977 250.044 267.381 250.709 266.968L250.715 266.964L250.722 266.959C251.66 266.337 252.776 266.019 254.09 266.019ZM253.391 267.715C252.242 267.715 251.239 268.003 250.412 268.606C249.588 269.208 248.977 270.094 248.562 271.225C248.112 272.436 247.898 273.941 247.898 275.726C247.898 277.179 248.116 278.448 248.57 279.513V279.514C248.999 280.531 249.619 281.324 250.443 281.86C251.267 282.395 252.259 282.648 253.391 282.648C254.985 282.648 256.316 281.968 257.35 280.662C258.398 279.337 258.879 277.412 258.879 274.976C258.879 273.665 258.716 272.493 258.372 271.469L258.214 271.04C257.789 269.966 257.172 269.125 256.348 268.556C255.522 267.986 254.527 267.715 253.391 267.715Z" stroke="white"/>
</g>
<g filter="url(#filter18_d_1156_69)">
<path d="M276.359 280.351C277.308 279.152 277.781 277.359 277.781 274.976C277.781 273.523 277.574 272.273 277.152 271.226C276.359 269.219 274.902 268.215 272.793 268.215C270.668 268.215 269.215 269.273 268.433 271.398C268.011 272.535 267.8 273.976 267.8 275.726C267.8 277.133 268.011 278.332 268.433 279.32C269.226 281.203 270.679 282.148 272.793 282.148C274.222 282.148 275.414 281.547 276.359 280.351ZM264.855 266.051H267.836V268.469C268.449 267.64 269.117 266.996 269.847 266.543C270.879 265.859 272.093 265.519 273.492 265.519C275.558 265.519 277.312 266.312 278.754 267.898C280.195 269.48 280.918 271.746 280.918 274.687C280.918 278.66 279.879 281.5 277.8 283.203C276.484 284.281 274.949 284.82 273.203 284.82C271.828 284.82 270.672 284.519 269.742 283.918C269.199 283.578 268.59 282.992 267.918 282.164V291.48H264.855V266.051Z" fill="white"/>
<path d="M273.492 266.019C275.291 266.019 276.829 266.66 278.128 267.964L278.385 268.235C279.715 269.695 280.419 271.824 280.419 274.687C280.419 278.584 279.399 281.246 277.483 282.816C276.26 283.818 274.837 284.32 273.203 284.32C271.901 284.32 270.845 284.036 270.014 283.499V283.498L270.008 283.495L269.825 283.372C269.389 283.058 268.882 282.558 268.307 281.849L267.419 280.754V290.98H265.355V266.551H267.337V269.986L268.238 268.766C268.822 267.977 269.446 267.381 270.111 266.968L270.117 266.964L270.124 266.959C271.063 266.337 272.178 266.019 273.492 266.019ZM272.794 267.715C271.646 267.715 270.642 268.003 269.815 268.606C268.991 269.208 268.38 270.094 267.964 271.225C267.515 272.436 267.301 273.941 267.301 275.726C267.301 277.179 267.518 278.448 267.973 279.513V279.514C268.401 280.531 269.021 281.324 269.846 281.86C270.67 282.395 271.662 282.648 272.794 282.648C274.387 282.648 275.719 281.967 276.751 280.661L276.752 280.662C277.801 279.337 278.281 277.412 278.281 274.976C278.281 273.665 278.118 272.493 277.774 271.469L277.616 271.04C277.191 269.966 276.575 269.125 275.751 268.556C274.925 267.986 273.93 267.715 272.794 267.715Z" stroke="white"/>
</g>
<defs>
<filter id="filter0_d_1156_69" x="141.387" y="180.238" width="53.9849" height="58.6128" filterUnits="userSpaceOnUse" color-interpolation-filters="sRGB">
<feFlood flood-opacity="0" result="BackgroundImageFix"/>
<feColorMatrix in="SourceAlpha" type="matrix" values="0 0 0 0 0 0 0 0 0 0 0 0 0 0 0 0 0 0 127 0" result="hardAlpha"/>
<feOffset/>
<feGaussianBlur stdDeviation="4"/>
<feComposite in2="hardAlpha" operator="out"/>
<feColorMatrix type="matrix" values="0 0 0 0 0 0 0 0 0 0 0 0 0 0 0 0 0 0 0.25 0"/>
<feBlend mode="normal" in2="BackgroundImageFix" result="effect1_dropShadow_1156_69"/>
<feBlend mode="normal" in="SourceGraphic" in2="effect1_dropShadow_1156_69" result="shape"/>
</filter>
<filter id="filter1_d_1156_69" x="186.039" y="180.312" width="55.207" height="73.1758" filterUnits="userSpaceOnUse" color-interpolation-filters="sRGB">
<feFlood flood-opacity="0" result="BackgroundImageFix"/>
<feColorMatrix in="SourceAlpha" type="matrix" values="0 0 0 0 0 0 0 0 0 0 0 0 0 0 0 0 0 0 127 0" result="hardAlpha"/>
<feOffset/>
<feGaussianBlur stdDeviation="4"/>
<feComposite in2="hardAlpha" operator="out"/>
<feColorMatrix type="matrix" values="0 0 0 0 0 0 0 0 0 0 0 0 0 0 0 0 0 0 0.25 0"/>
<feBlend mode="normal" in2="BackgroundImageFix" result="effect1_dropShadow_1156_69"/>
<feBlend mode="normal" in="SourceGraphic" in2="effect1_dropShadow_1156_69" result="shape"/>
</filter>
<filter id="filter2_d_1156_69" x="232.398" y="180.312" width="55.2031" height="73.1758" filterUnits="userSpaceOnUse" color-interpolation-filters="sRGB">
<feFlood flood-opacity="0" result="BackgroundImageFix"/>
<feColorMatrix in="SourceAlpha" type="matrix" values="0 0 0 0 0 0 0 0 0 0 0 0 0 0 0 0 0 0 127 0" result="hardAlpha"/>
<feOffset/>
<feGaussianBlur stdDeviation="4"/>
<feComposite in2="hardAlpha" operator="out"/>
<feColorMatrix type="matrix" values="0 0 0 0 0 0 0 0 0 0 0 0 0 0 0 0 0 0 0.25 0"/>
<feBlend mode="normal" in2="BackgroundImageFix" result="effect1_dropShadow_1156_69"/>
<feBlend mode="normal" in="SourceGraphic" in2="effect1_dropShadow_1156_69" result="shape"/>
</filter>
<filter id="filter3_d_1156_69" x="143.059" y="37.1372" width="41.02" height="144.421" filterUnits="userSpaceOnUse" color-interpolation-filters="sRGB">
<feFlood flood-opacity="0" result="BackgroundImageFix"/>
<feColorMatrix in="SourceAlpha" type="matrix" values="0 0 0 0 0 0 0 0 0 0 0 0 0 0 0 0 0 0 127 0" result="hardAlpha"/>
<feOffset/>
<feGaussianBlur stdDeviation="4"/>
<feComposite in2="hardAlpha" operator="out"/>
<feColorMatrix type="matrix" values="0 0 0 0 0 0 0 0 0 0 0 0 0 0 0 0 0 0 0.25 0"/>
<feBlend mode="normal" in2="BackgroundImageFix" result="effect1_dropShadow_1156_69"/>
<feBlend mode="normal" in="SourceGraphic" in2="effect1_dropShadow_1156_69" result="shape"/>
</filter>
<filter id="filter4_d_1156_69" x="183.496" y="35.0903" width="105.457" height="146.468" filterUnits="userSpaceOnUse" color-interpolation-filters="sRGB">
<feFlood flood-opacity="0" result="BackgroundImageFix"/>
<feColorMatrix in="SourceAlpha" type="matrix" values="0 0 0 0 0 0 0 0 0 0 0 0 0 0 0 0 0 0 127 0" result="hardAlpha"/>
<feOffset/>
<feGaussianBlur stdDeviation="4"/>
<feComposite in2="hardAlpha" operator="out"/>
<feColorMatrix type="matrix" values="0 0 0 0 0 0 0 0 0 0 0 0 0 0 0 0 0 0 0.25 0"/>
<feBlend mode="normal" in2="BackgroundImageFix" result="effect1_dropShadow_1156_69"/>
<feBlend mode="normal" in="SourceGraphic" in2="effect1_dropShadow_1156_69" result="shape"/>
</filter>
<filter id="filter5_d_1156_69" x="45.7109" y="37.1333" width="103.507" height="216.443" filterUnits="userSpaceOnUse" color-interpolation-filters="sRGB">
<feFlood flood-opacity="0" result="BackgroundImageFix"/>
<feColorMatrix in="SourceAlpha" type="matrix" values="0 0 0 0 0 0 0 0 0 0 0 0 0 0 0 0 0 0 127 0" result="hardAlpha"/>
<feOffset/>
<feGaussianBlur stdDeviation="4"/>
<feComposite in2="hardAlpha" operator="out"/>
<feColorMatrix type="matrix" values="0 0 0 0 0 0 0 0 0 0 0 0 0 0 0 0 0 0 0.25 0"/>
<feBlend mode="normal" in2="BackgroundImageFix" result="effect1_dropShadow_1156_69"/>
<feBlend mode="normal" in="SourceGraphic" in2="effect1_dropShadow_1156_69" result="shape"/>
</filter>
<filter id="filter6_d_1156_69" x="45.7461" y="252.871" width="24.4839" height="39.625" filterUnits="userSpaceOnUse" color-interpolation-filters="sRGB">
<feFlood flood-opacity="0" result="BackgroundImageFix"/>
<feColorMatrix in="SourceAlpha" type="matrix" values="0 0 0 0 0 0 0 0 0 0 0 0 0 0 0 0 0 0 127 0" result="hardAlpha"/>
<feOffset/>
<feGaussianBlur stdDeviation="4"/>
<feComposite in2="hardAlpha" operator="out"/>
<feColorMatrix type="matrix" values="0 0 0 0 0 0 0 0 0 0 0 0 0 0 0 0 0 0 0.25 0"/>
<feBlend mode="normal" in2="BackgroundImageFix" result="effect1_dropShadow_1156_69"/>
<feBlend mode="normal" in="SourceGraphic" in2="effect1_dropShadow_1156_69" result="shape"/>
</filter>
<filter id="filter7_d_1156_69" x="57.2969" y="251.097" width="30.8711" height="41.1099" filterUnits="userSpaceOnUse" color-interpolation-filters="sRGB">
<feFlood flood-opacity="0" result="BackgroundImageFix"/>
<feColorMatrix in="SourceAlpha" type="matrix" values="0 0 0 0 0 0 0 0 0 0 0 0 0 0 0 0 0 0 127 0" result="hardAlpha"/>
<feOffset/>
<feGaussianBlur stdDeviation="4"/>
<feComposite in2="hardAlpha" operator="out"/>
<feColorMatrix type="matrix" values="0 0 0 0 0 0 0 0 0 0 0 0 0 0 0 0 0 0 0.25 0"/>
<feBlend mode="normal" in2="BackgroundImageFix" result="effect1_dropShadow_1156_69"/>
<feBlend mode="normal" in="SourceGraphic" in2="effect1_dropShadow_1156_69" result="shape"/>
</filter>
<filter id="filter8_d_1156_69" x="75.6758" y="257.555" width="32.6611" height="35.2998" filterUnits="userSpaceOnUse" color-interpolation-filters="sRGB">
<feFlood flood-opacity="0" result="BackgroundImageFix"/>
<feColorMatrix in="SourceAlpha" type="matrix" values="0 0 0 0 0 0 0 0 0 0 0 0 0 0 0 0 0 0 127 0" result="hardAlpha"/>
<feOffset/>
<feGaussianBlur stdDeviation="4"/>
<feComposite in2="hardAlpha" operator="out"/>
<feColorMatrix type="matrix" values="0 0 0 0 0 0 0 0 0 0 0 0 0 0 0 0 0 0 0.25 0"/>
<feBlend mode="normal" in2="BackgroundImageFix" result="effect1_dropShadow_1156_69"/>
<feBlend mode="normal" in="SourceGraphic" in2="effect1_dropShadow_1156_69" result="shape"/>
</filter>
<filter id="filter9_d_1156_69" x="103.938" y="252.871" width="24.481" height="39.625" filterUnits="userSpaceOnUse" color-interpolation-filters="sRGB">
<feFlood flood-opacity="0" result="BackgroundImageFix"/>
<feColorMatrix in="SourceAlpha" type="matrix" values="0 0 0 0 0 0 0 0 0 0 0 0 0 0 0 0 0 0 127 0" result="hardAlpha"/>
<feOffset/>
<feGaussianBlur stdDeviation="4"/>
<feComposite in2="hardAlpha" operator="out"/>
<feColorMatrix type="matrix" values="0 0 0 0 0 0 0 0 0 0 0 0 0 0 0 0 0 0 0.25 0"/>
<feBlend mode="normal" in2="BackgroundImageFix" result="effect1_dropShadow_1156_69"/>
<feBlend mode="normal" in="SourceGraphic" in2="effect1_dropShadow_1156_69" result="shape"/>
</filter>
<filter id="filter10_d_1156_69" x="115.484" y="251.183" width="19.1172" height="41.0239" filterUnits="userSpaceOnUse" color-interpolation-filters="sRGB">
<feFlood flood-opacity="0" result="BackgroundImageFix"/>
<feColorMatrix in="SourceAlpha" type="matrix" values="0 0 0 0 0 0 0 0 0 0 0 0 0 0 0 0 0 0 127 0" result="hardAlpha"/>
<feOffset/>
<feGaussianBlur stdDeviation="4"/>
<feComposite in2="hardAlpha" operator="out"/>
<feColorMatrix type="matrix" values="0 0 0 0 0 0 0 0 0 0 0 0 0 0 0 0 0 0 0.25 0"/>
<feBlend mode="normal" in2="BackgroundImageFix" result="effect1_dropShadow_1156_69"/>
<feBlend mode="normal" in="SourceGraphic" in2="effect1_dropShadow_1156_69" result="shape"/>
</filter>
<filter id="filter11_d_1156_69" x="123" y="257.519" width="32.062" height="41.9609" filterUnits="userSpaceOnUse" color-interpolation-filters="sRGB">
<feFlood flood-opacity="0" result="BackgroundImageFix"/>
<feColorMatrix in="SourceAlpha" type="matrix" values="0 0 0 0 0 0 0 0 0 0 0 0 0 0 0 0 0 0 127 0" result="hardAlpha"/>
<feOffset/>
<feGaussianBlur stdDeviation="4"/>
<feComposite in2="hardAlpha" operator="out"/>
<feColorMatrix type="matrix" values="0 0 0 0 0 0 0 0 0 0 0 0 0 0 0 0 0 0 0.25 0"/>
<feBlend mode="normal" in2="BackgroundImageFix" result="effect1_dropShadow_1156_69"/>
<feBlend mode="normal" in="SourceGraphic" in2="effect1_dropShadow_1156_69" result="shape"/>
</filter>
<filter id="filter12_d_1156_69" x="142.402" y="257.519" width="32.063" height="41.9609" filterUnits="userSpaceOnUse" color-interpolation-filters="sRGB">
<feFlood flood-opacity="0" result="BackgroundImageFix"/>
<feColorMatrix in="SourceAlpha" type="matrix" values="0 0 0 0 0 0 0 0 0 0 0 0 0 0 0 0 0 0 127 0" result="hardAlpha"/>
<feOffset/>
<feGaussianBlur stdDeviation="4"/>
<feComposite in2="hardAlpha" operator="out"/>
<feColorMatrix type="matrix" values="0 0 0 0 0 0 0 0 0 0 0 0 0 0 0 0 0 0 0.25 0"/>
<feBlend mode="normal" in2="BackgroundImageFix" result="effect1_dropShadow_1156_69"/>
<feBlend mode="normal" in="SourceGraphic" in2="effect1_dropShadow_1156_69" result="shape"/>
</filter>
<filter id="filter13_d_1156_69" x="162.043" y="251.183" width="19.1172" height="41.0239" filterUnits="userSpaceOnUse" color-interpolation-filters="sRGB">
<feFlood flood-opacity="0" result="BackgroundImageFix"/>
<feColorMatrix in="SourceAlpha" type="matrix" values="0 0 0 0 0 0 0 0 0 0 0 0 0 0 0 0 0 0 127 0" result="hardAlpha"/>
<feOffset/>
<feGaussianBlur stdDeviation="4"/>
<feComposite in2="hardAlpha" operator="out"/>
<feColorMatrix type="matrix" values="0 0 0 0 0 0 0 0 0 0 0 0 0 0 0 0 0 0 0.25 0"/>
<feBlend mode="normal" in2="BackgroundImageFix" result="effect1_dropShadow_1156_69"/>
<feBlend mode="normal" in="SourceGraphic" in2="effect1_dropShadow_1156_69" result="shape"/>
</filter>
<filter id="filter14_d_1156_69" x="169.793" y="257.555" width="30.8711" height="34.6519" filterUnits="userSpaceOnUse" color-interpolation-filters="sRGB">
<feFlood flood-opacity="0" result="BackgroundImageFix"/>
<feColorMatrix in="SourceAlpha" type="matrix" values="0 0 0 0 0 0 0 0 0 0 0 0 0 0 0 0 0 0 127 0" result="hardAlpha"/>
<feOffset/>
<feGaussianBlur stdDeviation="4"/>
<feComposite in2="hardAlpha" operator="out"/>
<feColorMatrix type="matrix" values="0 0 0 0 0 0 0 0 0 0 0 0 0 0 0 0 0 0 0.25 0"/>
<feBlend mode="normal" in2="BackgroundImageFix" result="effect1_dropShadow_1156_69"/>
<feBlend mode="normal" in="SourceGraphic" in2="effect1_dropShadow_1156_69" result="shape"/>
</filter>
<filter id="filter15_d_1156_69" x="187.984" y="257.64" width="31.9961" height="42.2817" filterUnits="userSpaceOnUse" color-interpolation-filters="sRGB">
<feFlood flood-opacity="0" result="BackgroundImageFix"/>
<feColorMatrix in="SourceAlpha" type="matrix" values="0 0 0 0 0 0 0 0 0 0 0 0 0 0 0 0 0 0 127 0" result="hardAlpha"/>
<feOffset/>
<feGaussianBlur stdDeviation="4"/>
<feComposite in2="hardAlpha" operator="out"/>
<feColorMatrix type="matrix" values="0 0 0 0 0 0 0 0 0 0 0 0 0 0 0 0 0 0 0.25 0"/>
<feBlend mode="normal" in2="BackgroundImageFix" result="effect1_dropShadow_1156_69"/>
<feBlend mode="normal" in="SourceGraphic" in2="effect1_dropShadow_1156_69" result="shape"/>
</filter>
<filter id="filter16_d_1156_69" x="217.438" y="257.519" width="33.2539" height="35.3008" filterUnits="userSpaceOnUse" color-interpolation-filters="sRGB">
<feFlood flood-opacity="0" result="BackgroundImageFix"/>
<feColorMatrix in="SourceAlpha" type="matrix" values="0 0 0 0 0 0 0 0 0 0 0 0 0 0 0 0 0 0 127 0" result="hardAlpha"/>
<feOffset/>
<feGaussianBlur stdDeviation="4"/>
<feComposite in2="hardAlpha" operator="out"/>
<feColorMatrix type="matrix" values="0 0 0 0 0 0 0 0 0 0 0 0 0 0 0 0 0 0 0.25 0"/>
<feBlend mode="normal" in2="BackgroundImageFix" result="effect1_dropShadow_1156_69"/>
<feBlend mode="normal" in="SourceGraphic" in2="effect1_dropShadow_1156_69" result="shape"/>
</filter>
<filter id="filter17_d_1156_69" x="237.453" y="257.519" width="32.062" height="41.9609" filterUnits="userSpaceOnUse" color-interpolation-filters="sRGB">
<feFlood flood-opacity="0" result="BackgroundImageFix"/>
<feColorMatrix in="SourceAlpha" type="matrix" values="0 0 0 0 0 0 0 0 0 0 0 0 0 0 0 0 0 0 127 0" result="hardAlpha"/>
<feOffset/>
<feGaussianBlur stdDeviation="4"/>
<feComposite in2="hardAlpha" operator="out"/>
<feColorMatrix type="matrix" values="0 0 0 0 0 0 0 0 0 0 0 0 0 0 0 0 0 0 0.25 0"/>
<feBlend mode="normal" in2="BackgroundImageFix" result="effect1_dropShadow_1156_69"/>
<feBlend mode="normal" in="SourceGraphic" in2="effect1_dropShadow_1156_69" result="shape"/>
</filter>
<filter id="filter18_d_1156_69" x="256.855" y="257.519" width="32.063" height="41.9609" filterUnits="userSpaceOnUse" color-interpolation-filters="sRGB">
<feFlood flood-opacity="0" result="BackgroundImageFix"/>
<feColorMatrix in="SourceAlpha" type="matrix" values="0 0 0 0 0 0 0 0 0 0 0 0 0 0 0 0 0 0 127 0" result="hardAlpha"/>
<feOffset/>
<feGaussianBlur stdDeviation="4"/>
<feComposite in2="hardAlpha" operator="out"/>
<feColorMatrix type="matrix" values="0 0 0 0 0 0 0 0 0 0 0 0 0 0 0 0 0 0 0.25 0"/>
<feBlend mode="normal" in2="BackgroundImageFix" result="effect1_dropShadow_1156_69"/>
<feBlend mode="normal" in="SourceGraphic" in2="effect1_dropShadow_1156_69" result="shape"/>
</filter>
<linearGradient id="paint0_linear_1156_69" x1="60.5" y1="4.69071e-06" x2="272" y2="335" gradientUnits="userSpaceOnUse">
<stop stop-color="#BC161D"/>
<stop offset="0.49" stop-color="#2C0507"/>
<stop offset="0.5" stop-color="#1C1C4E"/>
<stop offset="1" stop-color="#0173B2"/>
</linearGradient>
</defs>
</svg>
